<svg xmlns="http://www.w3.org/2000/svg" xmlns:xlink="http://www.w3.org/1999/xlink" version="1.1" style="display: none;">
    <defs>
        <!-- viewBox="0 0 33 37" -->
        <g id="face-nose">
          <path fill-rule="evenodd" clip-rule="evenodd" d="M25.5957 19.7933L20.4529 1.19993L21.8986 0.800049L26.9547 19.0798C27.6496 19.4581 28.5796 20.0611 29.4441 20.8197C30.4266 21.6821 31.4117 22.8211 31.787 24.1345C32.6588 27.1858 31.3832 30.4319 28.5338 31.3817C27.8705 31.6028 27.2197 31.7092 26.6159 31.7798C26.3242 31.814 26.0701 31.8378 25.8287 31.8604C25.5274 31.8887 25.2461 31.9151 24.9364 31.9573C23.9611 32.0903 23.2191 32.3309 22.615 33.0411C22.0742 34.256 20.8435 35.0177 19.6941 35.472C18.4823 35.951 17.1641 36.1673 16.2765 36.1673C15.3921 36.1673 14.0174 35.9522 12.7497 35.4768C11.5558 35.029 10.2463 34.2713 9.69522 33.0415C9.09108 32.3309 8.34898 32.0903 7.37349 31.9573C7.06379 31.9151 6.78244 31.8887 6.48118 31.8604C6.23982 31.8378 5.98568 31.814 5.69395 31.7798C5.0902 31.7092 4.43935 31.6028 3.77609 31.3817C0.926681 30.4319 -0.348905 27.1858 0.522898 24.1345C0.898173 22.8211 1.88323 21.6821 2.8658 20.8197C3.73025 20.0611 4.66023 19.4581 5.35517 19.0798L10.4113 0.800049L11.857 1.19993L6.71414 19.7933C6.6575 19.998 6.5167 20.1692 6.32669 20.2642C5.71824 20.5684 4.74456 21.1666 3.85523 21.9471C2.9521 22.7398 2.22287 23.6447 1.96518 24.5466C1.25457 27.0338 2.35261 29.3261 4.25043 29.9587C4.77399 30.1332 5.30996 30.2247 5.86829 30.29C6.07749 30.3145 6.31491 30.3373 6.55892 30.3608C6.76719 30.3808 6.98027 30.4013 7.18467 30.4236C6.74913 30.1347 6.34512 29.9055 6.05105 29.7585L6.72187 28.4169C7.29155 28.7017 8.16868 29.2243 8.99326 29.8881C9.79986 30.5375 10.6496 31.3954 11.0393 32.3697C11.3114 33.05 12.1336 33.6437 13.2764 34.0723C14.3821 34.4869 15.5786 34.6673 16.2765 34.6673C16.9714 34.6673 18.1028 34.4881 19.1427 34.077C20.2095 33.6554 20.992 33.066 21.2705 32.3697C21.6603 31.3954 22.51 30.5375 23.3166 29.8881C24.1412 29.2243 25.0183 28.7017 25.588 28.4169L26.2588 29.7585C25.9648 29.9055 25.5607 30.1347 25.1252 30.4236C25.3296 30.4013 25.5427 30.3808 25.751 30.3608C25.995 30.3373 26.2324 30.3145 26.4416 30.29C26.9999 30.2247 27.5359 30.1332 28.0594 29.9587C29.9573 29.3261 31.0553 27.0338 30.3447 24.5466C30.087 23.6447 29.3578 22.7398 28.4546 21.9471C27.5653 21.1666 26.5916 20.5684 25.9832 20.2642C25.7932 20.1692 25.6524 19.998 25.5957 19.7933Z"/>
        </g>
        <!-- viewBox="0 0 48 17" -->
        <g id="hair-mustache">
          <path fill-rule="evenodd" clip-rule="evenodd" d="M26.7774 2.75341C25.8385 3.16945 25.0773 3.70076 24.6788 4.17175L24.1062 4.84826L23.5337 4.17174C23.1086 3.66931 22.0174 2.71687 20.531 2.31141C19.0932 1.9192 17.2207 2.01778 15.1012 3.68755C12.1069 6.0464 10.1596 7.28971 8.67129 7.84928C7.91061 8.13528 7.25576 8.24873 6.63401 8.23759C6.01906 8.22658 5.47547 8.09376 4.95539 7.94012C4.13933 7.69903 3.69535 7.04346 3.46463 6.39595C3.23585 5.75386 3.17194 5.0109 3.17194 4.34982C3.17194 4.20007 3.17524 4.05171 3.18111 3.90633C2.50368 5.29268 1.96868 7.32118 2.41299 9.42132C3.15284 12.9184 7.26684 15.2891 12.5634 14.7201C15.1716 14.4399 17.2064 14.025 18.9704 13.6653C19.0338 13.6524 19.0969 13.6395 19.1596 13.6267C20.9534 13.2613 22.5228 12.9491 24.1062 12.9491C25.6896 12.9491 27.259 13.2613 29.0528 13.6267C29.1156 13.6395 29.1786 13.6524 29.242 13.6653C31.006 14.025 33.0408 14.44 35.649 14.7202C40.9456 15.2892 45.0596 12.9184 45.7995 9.42138C46.2438 7.32124 45.7088 5.29273 45.0314 3.90638C45.0372 4.05176 45.0405 4.20013 45.0405 4.34989C45.0405 5.01096 44.9766 5.75392 44.7478 6.39601C44.5171 7.04352 44.0731 7.69909 43.2571 7.94018C42.737 8.09382 42.1934 8.22664 41.5785 8.23765C40.9567 8.24879 40.3019 8.13534 39.5412 7.84934C38.0529 7.28977 36.1055 6.04646 33.1113 3.68761L33.0942 3.67415L33.0779 3.65973C32.7901 3.4046 32.2434 2.99895 31.5872 2.66083C30.9231 2.31859 30.2161 2.08154 29.5884 2.08154C28.7249 2.08154 27.7086 2.34076 26.7774 2.75341ZM43.3075 2.07541L43.2913 1.99903V1.92056C43.2913 1.7771 43.3113 1.5503 43.4466 1.33659C43.6143 1.07169 43.8941 0.929149 44.1869 0.928204C44.4245 0.927437 44.6171 1.01851 44.7323 1.08518C44.8598 1.15893 44.9767 1.25252 45.08 1.34798C45.482 1.71965 45.9354 2.36245 46.3314 3.15159C47.1302 4.74334 47.8106 7.16238 47.267 9.73185C46.2974 14.3148 41.1565 16.8205 35.4888 16.2116C32.8094 15.9238 30.7157 15.4967 28.9511 15.1369C28.8848 15.1233 28.8188 15.1099 28.7534 15.0966C26.934 14.7259 25.5131 14.4491 24.1062 14.4491C22.6994 14.4491 21.2785 14.7259 19.4591 15.0965C19.3936 15.1099 19.3277 15.1233 19.2613 15.1369C17.4968 15.4967 15.4031 15.9237 12.7237 16.2115C7.05595 16.8204 1.91506 14.3148 0.945475 9.73179C0.401872 7.16232 1.08229 4.74328 1.88107 3.15153C2.27708 2.36239 2.73044 1.71959 3.13249 1.34792C3.23576 1.25246 3.35269 1.15887 3.48015 1.08512C3.59538 1.01845 3.78794 0.927375 4.02559 0.928143C4.31832 0.929088 4.59817 1.07163 4.76587 1.33653C4.90117 1.55023 4.92113 1.77704 4.92113 1.9205V1.99897L4.90497 2.07533L4.9047 2.07664L4.90314 2.08417L4.89633 2.11826C4.89025 2.14918 4.88127 2.19606 4.87036 2.25677C4.84852 2.37831 4.81904 2.55454 4.78947 2.76851C4.72997 3.19921 4.67194 3.77001 4.67194 4.34982C4.67194 4.94022 4.73262 5.48554 4.87762 5.89248C5.02068 6.29399 5.19968 6.4482 5.38037 6.50158C5.85705 6.6424 6.24792 6.73043 6.66087 6.73783C7.06702 6.74511 7.53352 6.67453 8.14339 6.44524C9.39619 5.97421 11.1867 4.86182 14.1729 2.50926C16.6681 0.543592 19.0319 0.347674 20.9258 0.864285C22.3136 1.24286 23.4134 1.9927 24.1166 2.62855C24.6853 2.14955 25.4089 1.71916 26.1697 1.38203C27.232 0.911266 28.4584 0.581543 29.5884 0.581543C30.5555 0.581543 31.5098 0.933469 32.2743 1.32745C33.0354 1.71963 33.6769 2.18917 34.0559 2.52222C37.0324 4.86596 38.8186 5.97513 40.0691 6.4453C40.6789 6.67459 41.1454 6.74517 41.5516 6.73789C41.9646 6.7305 42.3554 6.64246 42.8321 6.50164C43.0128 6.44826 43.1918 6.29405 43.3349 5.89254C43.4799 5.4856 43.5405 4.94028 43.5405 4.34989C43.5405 3.77007 43.4825 3.19927 43.423 2.76857C43.3934 2.5546 43.364 2.37837 43.3421 2.25683C43.3312 2.19612 43.3222 2.14924 43.3161 2.11832L43.3093 2.08424L43.3078 2.07671L43.3075 2.07541Z"/>
        </g>
        <!-- viewBox="0 0 47 23" -->
        <g id="face-mouth">
          <path fill-rule="evenodd" clip-rule="evenodd" d="M23.8401 1.94281C23.4784 1.59347 23.0458 1.24389 22.5602 0.954215C21.6075 0.385816 20.3601 -0.000863329 19.0349 0.440872C18.3387 0.672943 17.0484 1.2354 15.4987 1.92937C14.9161 2.1903 14.2931 2.47152 13.6428 2.76507C12.5389 3.26343 11.3562 3.7973 10.1587 4.32766C8.25828 5.16925 6.34102 5.99267 4.6861 6.63176C3.00549 7.28078 1.67299 7.70822 0.907046 7.80397L0.802734 9.27175C1.10827 9.35508 1.41249 9.43621 1.71533 9.51519C3.78233 11.8458 7.17662 14.9004 11.0167 17.4398C15.1075 20.1451 19.8291 22.3498 24.0576 22.3498C28.2862 22.3498 33.0078 20.1451 37.0986 17.4398C41.0216 14.8455 44.4794 11.7136 46.5321 9.36517C46.647 9.33434 46.7622 9.3032 46.8775 9.27175L46.7732 7.80397C46.0073 7.70822 44.6748 7.28078 42.9942 6.63176C41.3392 5.99267 39.422 5.16925 37.5216 4.32766C36.324 3.7973 35.1413 3.26342 34.0374 2.76506C33.3871 2.47151 32.7642 2.19029 32.1815 1.92937C30.6319 1.2354 29.3416 0.672943 28.6454 0.440872C27.3202 -0.000863329 26.0728 0.385816 25.12 0.954215C24.6344 1.24389 24.2019 1.59347 23.8401 1.94281ZM43.7639 8.51736C43.3443 8.36903 42.9053 8.20539 42.4538 8.03105C40.7643 7.3786 38.8205 6.5434 36.9142 5.69919C35.7134 5.1674 34.5192 4.62833 33.4108 4.12797C32.762 3.8351 32.1426 3.55549 31.5684 3.29837C29.9912 2.59203 28.78 2.06687 28.171 1.8639C27.408 1.60956 26.6252 1.80294 25.8885 2.2424C25.149 2.68358 24.5474 3.32333 24.233 3.76355L23.8401 3.48294L23.4473 3.76355C23.1328 3.32333 22.5313 2.68358 21.7917 2.2424C21.0551 1.80294 20.2722 1.60956 19.5092 1.8639C18.9003 2.06687 17.6891 2.59203 16.1118 3.29837C15.5376 3.5555 14.9182 3.83511 14.2694 4.12798C13.161 4.62834 11.9668 5.1674 10.766 5.69919C8.85975 6.5434 6.91597 7.3786 5.22647 8.03105C4.775 8.20539 4.33594 8.36903 3.91633 8.51736C12.1154 10.4611 19.161 10.8323 23.8401 10.8433C28.5193 10.8323 35.5648 10.4611 43.7639 8.51736ZM24.0576 12.3425C28.7595 12.3208 35.7324 11.9343 43.8352 10.0416C41.8722 11.9954 39.2095 14.2456 36.2712 16.1887C32.2483 18.849 27.834 20.8498 24.0576 20.8498C20.2813 20.8498 15.8669 18.849 11.8441 16.1887C8.97091 14.2886 6.36129 12.095 4.41168 10.1719C12.2727 11.9522 19.0307 12.3213 23.6227 12.3425V12.3435C23.6946 12.3435 23.7671 12.3434 23.8401 12.3433C23.9132 12.3434 23.9857 12.3435 24.0576 12.3435V12.3425Z"/>
        </g>
        <!-- viewBox="0 0 32 32" -->
        <g id="eyes-iris">
          <path fill-rule="evenodd" clip-rule="evenodd" d="M15.8082 30.1164C23.7104 30.1164 30.1164 23.7104 30.1164 15.8082C30.1164 7.906 23.7104 1.5 15.8082 1.5C7.906 1.5 1.5 7.906 1.5 15.8082C1.5 23.7104 7.906 30.1164 15.8082 30.1164ZM15.8082 31.6164C24.5388 31.6164 31.6164 24.5388 31.6164 15.8082C31.6164 7.07757 24.5388 0 15.8082 0C7.07757 0 0 7.07757 0 15.8082C0 24.5388 7.07757 31.6164 15.8082 31.6164Z"/>
          <path d="M15.8089 22.4644C14.6992 24.6831 14.6992 26.9018 15.8089 29.1205C16.9178 26.9018 16.9178 24.6831 15.8089 22.4644Z"/>
          <path d="M15.8089 2.49609C14.6992 4.71479 14.6992 6.93348 15.8089 9.15218C16.9178 6.93348 16.9178 4.71479 15.8089 2.49609Z"/>
          <path d="M19.1363 21.5724C19.2846 24.0486 20.3939 25.9701 22.4643 27.3367C22.3153 24.8608 21.206 22.9394 19.1363 21.5724Z"/>
          <path d="M9.15236 4.2795C9.30071 6.75577 10.41 8.67724 12.4804 10.0438C12.3314 7.56792 11.2221 5.64647 9.15236 4.2795Z"/>
          <path d="M21.5727 19.1361C22.9393 21.2064 24.8607 22.3158 27.337 22.4641C25.9701 20.3944 24.0486 19.285 21.5727 19.1361Z"/>
          <path d="M4.28009 9.15182C5.6467 11.2222 7.56813 12.3315 10.0444 12.4799C8.67745 10.4101 6.756 9.3008 4.28009 9.15182Z"/>
          <path d="M22.4644 15.8079C24.6831 16.9175 26.9018 16.9176 29.1205 15.8079C26.9018 14.6989 24.6831 14.6989 22.4644 15.8079Z"/>
          <path d="M2.49609 15.8078C4.71479 16.9174 6.93348 16.9175 9.15218 15.8078C6.93348 14.6988 4.71479 14.6988 2.49609 15.8078Z"/>
          <path d="M21.5722 12.4799C24.0485 12.3315 25.9699 11.2222 27.3365 9.15185C24.8606 9.30083 22.9392 10.4102 21.5722 12.4799Z"/>
          <path d="M4.2795 22.4639C6.75577 22.3155 8.67724 21.2062 10.0438 19.1358C7.56792 19.2848 5.64647 20.3942 4.2795 22.4639Z"/>
          <path d="M19.1353 10.0438C21.2057 8.67717 22.3151 6.75575 22.4634 4.27945C20.3937 5.64643 19.2843 7.56787 19.1353 10.0438Z"/>
          <path d="M9.15208 27.3364C11.2224 25.9698 12.3318 24.0484 12.4801 21.5721C10.4104 22.939 9.30106 24.8605 9.15208 27.3364Z"/>
          <path d="M21.627 15.5614C21.173 15.7212 20.6847 15.8081 20.1761 15.8081C17.7637 15.8081 15.808 13.8525 15.808 11.4401C15.808 10.9315 15.895 10.4432 16.0547 9.9893C15.9729 9.98589 15.8907 9.98417 15.8081 9.98417C12.5915 9.98417 9.98398 12.5917 9.98398 15.8082C9.98398 19.0248 12.5915 21.6323 15.8081 21.6323C19.0246 21.6323 21.6321 19.0248 21.6321 15.8082C21.6321 15.7256 21.6304 15.6433 21.627 15.5614Z"/>
        </g>
        <!-- viewBox="0 0 42 46" -->
        <g id="hair">
          <path fill-rule="evenodd" clip-rule="evenodd" d="M25.7132 1.8402C23.63 1.50239 22.0818 2.17887 21.2204 2.82486L20.7556 3.17348L20.3019 2.81052C19.2394 1.96051 17.7193 1.49998 15.7304 1.8978C13.7216 2.29958 11.2164 3.5841 8.27791 6.27773C2.52404 11.5521 0.0605922 21.2343 2.98631 30.499C5.43486 38.2528 4.04959 43.7185 2.91424 45.6107L1.628 44.839C2.49265 43.3979 3.90738 38.3969 1.55593 30.9507C-1.51835 21.2155 1.0182 10.8976 7.26433 5.172C10.3258 2.36563 13.0703 0.900152 15.4362 0.426931C17.5799 -0.00184725 19.3957 0.390239 20.7849 1.30853C21.9561 0.584359 23.7289 -0.00116263 25.9533 0.359535C28.4913 0.771076 31.5125 2.39684 34.8376 6.23368C38.1551 10.0618 39.9778 13.6792 40.6948 17.4601C41.4098 21.2304 41.0123 25.0966 40.0005 29.3966C39.8164 30.1792 39.6376 30.924 39.4672 31.6337C38.701 34.8252 38.1047 37.3094 37.9559 39.3421C37.779 41.7604 38.2502 43.3626 39.7585 44.6554L38.7823 45.7943C36.7906 44.0871 36.2619 41.9394 36.4599 39.2326C36.6185 37.0661 37.2524 34.4282 38.0207 31.2314C38.1887 30.5323 38.3631 29.8065 38.5404 29.0531C39.5286 24.8532 39.881 21.2193 39.2211 17.7396C38.5632 14.2705 36.8861 10.8879 33.704 7.21605C30.5295 3.55289 27.8005 2.17865 25.7132 1.8402ZM19.4651 8.32798C19.8762 7.8285 20.0204 7.45999 20.0204 7.22493L21.5204 7.2248C21.5204 7.25142 21.5204 7.27837 21.5204 7.30565C21.52 8.9167 21.5194 11.6673 23.3032 13.5451C23.2966 13.3412 23.2992 13.1572 23.3093 12.9918C23.3264 12.7113 23.3656 12.4709 23.4243 12.2711C23.4765 12.0939 23.5668 11.8678 23.7401 11.6945L24.0898 11.3448L24.549 11.5285C25.8729 12.0581 28.4325 13.4706 30.666 15.1935C31.7853 16.0569 32.8518 17.0204 33.6456 18.0148C34.2487 18.7702 34.741 19.6014 34.9334 20.4614C35.723 20.5373 36.3725 20.9232 36.8238 21.5248C37.3844 22.2721 37.5902 23.2807 37.5191 24.2782C37.3819 26.2018 36.1898 28.3981 33.8019 29.3302C33.2674 31.1552 32.5569 32.9479 31.6703 34.5825C29.4419 38.6905 25.9908 41.9749 21.2704 41.9749C16.5605 41.9749 12.8732 38.5767 10.4134 34.6209C9.37953 32.9582 8.53593 31.1567 7.90461 29.3918C5.40681 28.4981 4.16288 26.2456 4.02235 24.2783C3.95109 23.2808 4.15681 22.2722 4.71739 21.5248C5.17789 20.9109 5.84482 20.5215 6.65656 20.4571C6.83306 18.6835 7.28188 17.4057 8.21935 16.3019C8.84719 15.5627 9.66388 14.9376 10.6671 14.2901C11.4498 13.7849 12.381 13.2448 13.4615 12.6181C13.7603 12.4448 14.0706 12.2648 14.3923 12.0772C14.3923 12.0771 14.3922 12.0772 14.3923 12.0772L14.3933 12.0766C15.1465 11.6372 16.6064 10.7845 17.8748 9.80292C18.5103 9.31113 19.0705 8.80747 19.4651 8.32798ZM6.56943 21.9844C6.28525 22.0533 6.07595 22.2134 5.91735 22.4249C5.63411 22.8025 5.46478 23.4189 5.51854 24.1714C5.59937 25.303 6.16954 26.5514 7.26855 27.3702C6.80449 25.6588 6.56144 24.0518 6.56144 22.7249C6.56144 22.4699 6.56399 22.2232 6.56943 21.9844ZM34.3135 27.3398C35.3861 26.5207 35.9432 25.2891 36.0229 24.1715C36.0766 23.419 35.9072 22.8026 35.6239 22.4249C35.472 22.2225 35.2737 22.0671 35.0078 21.9938C34.9533 23.6774 34.7219 25.5019 34.3135 27.3398ZM20.1391 9.8148C19.7326 10.2262 19.2673 10.622 18.7928 10.9892C17.4419 12.0347 15.9083 12.9293 15.1576 13.3673L15.1485 13.3726C14.8148 13.5673 14.4966 13.7518 14.1934 13.9278C13.1197 14.5506 12.2304 15.0665 11.4805 15.5504C10.5226 16.1686 9.84953 16.6997 9.36261 17.273C8.42873 18.3725 8.06144 19.7643 8.06144 22.7249C8.06144 25.5587 9.33647 30.0483 11.6873 33.8288C14.0466 37.6231 17.3388 40.4749 21.2704 40.4749C25.1916 40.4749 28.2405 37.7592 30.3518 33.8673C32.4565 29.9872 33.5204 25.112 33.5204 21.2249C33.5204 20.604 33.1776 19.8328 32.4734 18.9506C31.7828 18.0855 30.8181 17.2053 29.7498 16.3812C28.0202 15.0469 26.0957 13.9178 24.7998 13.285C24.7961 13.6857 24.8441 14.2689 25.0059 15.0778L25.3239 16.6681L23.9062 15.8805C21.244 14.4015 20.4031 11.868 20.1391 9.8148Z"/>
        </g>
        <!-- viewBox="0 0 40 32" -->
        <g id="eyes-glasses">
          <path fill-rule="evenodd" clip-rule="evenodd" d="M1.50029 17.3398C1.49558 13.4952 1.56778 10.0558 2.18227 7.35206C2.59603 5.53158 3.23744 4.14311 4.18829 3.2109C5.11841 2.29902 6.4203 1.75001 8.32409 1.75L8.32409 0.25C6.104 0.250011 4.39889 0.903808 3.13819 2.13979C1.89821 3.35545 1.16498 5.05989 0.719576 7.01962C-0.0360889 10.3445 -0.0155263 14.6871 0.00620272 19.2761C0.00987383 20.0514 0.0135782 20.8337 0.0135782 21.6194H0.025509C0.00830843 21.8462 -0.000448624 22.0755 -0.000448624 22.3067C-0.000448624 27.2575 4.01293 31.2708 8.96369 31.2708C13.8633 31.2708 17.8448 27.3399 17.9266 22.4598C18.1623 21.9256 18.9107 21.5103 19.9318 21.5103C20.9043 21.5103 21.6294 21.887 21.8999 22.3844C21.9416 27.2994 25.9389 31.2708 30.8637 31.2708C35.8145 31.2708 39.8278 27.2575 39.8278 22.3067C39.8278 22.0112 39.8135 21.7191 39.7856 21.4309C39.7861 20.7086 39.7895 19.9894 39.7929 19.2761C39.8146 14.6871 39.8352 10.3445 39.0795 7.01962C38.6341 5.05989 37.9009 3.35545 36.6609 2.13979C35.4002 0.903808 33.6951 0.250011 31.475 0.25L31.475 1.75C33.3788 1.75001 34.6807 2.29902 35.6108 3.2109C36.5617 4.14311 37.2031 5.53158 37.6168 7.35206C38.2291 10.0459 38.303 13.4701 38.2989 17.2977C36.6882 14.9116 33.9592 13.3426 30.8637 13.3426C26.5194 13.3426 22.8969 16.4329 22.0746 20.5351C21.4165 20.1684 20.6324 20.0103 19.9318 20.0103C19.2196 20.0103 18.4211 20.1737 17.7565 20.5534C16.9412 16.4421 13.3144 13.3426 8.96369 13.3426C5.85005 13.3426 3.10718 14.93 1.50029 17.3398ZM38.2855 21.5075C37.8867 17.761 34.716 14.8426 30.8637 14.8426C26.7414 14.8426 23.3996 18.1844 23.3996 22.3067C23.3996 26.429 26.7414 29.7708 30.8637 29.7708C34.986 29.7708 38.3278 26.429 38.3278 22.3067C38.3278 22.075 38.3173 21.8457 38.2966 21.6194H38.2855C38.2855 21.5821 38.2855 21.5448 38.2855 21.5075ZM8.96369 14.8426C4.84136 14.8426 1.49955 18.1844 1.49955 22.3067C1.49955 26.429 4.84136 29.7708 8.96369 29.7708C13.086 29.7708 16.4278 26.429 16.4278 22.3067C16.4278 18.1844 13.086 14.8426 8.96369 14.8426Z"/>
        </g>
        <!-- viewBox="0 0 42 41" -->
        <g id="face">
          <path fill-rule="evenodd" clip-rule="evenodd" d="M20.9581 0.256697C21.0971 0.252241 21.2358 0.25 21.374 0.25V0.27653C24.6523 0.483723 28.114 1.89482 30.8664 4.16963C33.8596 6.64345 36.0712 10.189 36.2481 14.4087C36.4214 18.5405 34.7919 24.8747 32.0517 30.1638C30.6769 32.8173 28.999 35.255 27.0827 37.0393C25.39 38.6155 23.4666 39.721 21.374 39.9561V40.0028C21.2346 40.0028 21.096 39.9988 20.9581 39.9911C20.8202 39.9988 20.6815 40.0028 20.5422 40.0028V39.9561C18.4496 39.721 16.5262 38.6155 14.8335 37.0393C12.9172 35.255 11.2393 32.8173 9.86454 30.1638C7.12428 24.8747 5.49483 18.5405 5.66808 14.4087C5.84502 10.189 8.05659 6.64345 11.0498 4.16963C13.8022 1.89482 17.2639 0.483723 20.5422 0.27653V0.25C20.6804 0.25 20.8191 0.252241 20.9581 0.256697ZM20.9581 1.75757C17.9367 1.86692 14.6313 3.15559 12.0054 5.32585C9.26522 7.59054 7.32219 10.765 7.16677 14.4716C7.00765 18.266 8.53569 24.3382 11.1964 29.4738C12.5221 32.0327 14.1055 34.3119 15.8557 35.9415C17.4798 37.4537 19.1984 38.3634 20.9581 38.488C22.7178 38.3634 24.4364 37.4537 26.0605 35.9415C27.8106 34.3119 29.3941 32.0327 30.7198 29.4738C33.3805 24.3382 34.9085 18.266 34.7494 14.4716C34.594 10.765 32.651 7.59054 29.9108 5.32585C27.2849 3.15559 23.9795 1.86692 20.9581 1.75757ZM3.67701 32.2914C2.13194 29.4325 0.932947 26.657 0.297852 24.9634L1.70235 24.4367C2.31462 26.0695 3.48564 28.7824 4.99663 31.5783C6.10968 33.6378 7.39185 35.7133 8.75418 37.4307L8.56964 35.5853L10.0622 35.436L10.5895 40.7089L5.35829 39.1395L5.78931 37.7028L7.45231 38.2017C6.0563 36.4145 4.77247 34.3184 3.67701 32.2914ZM36.5037 31.5783C38.0147 28.7824 39.1857 26.0695 39.798 24.4367L41.2025 24.9634C40.5674 26.657 39.3684 29.4325 37.8233 32.2914C36.7279 34.3184 35.444 36.4145 34.048 38.2017L35.711 37.7028L36.142 39.1395L30.9108 40.7089L31.4381 35.436L32.9307 35.5853L32.7462 37.4307C34.1085 35.7133 35.3907 33.6378 36.5037 31.5783Z"/>
        </g>
        <!-- viewBox="0 0 44 19" -->
        <g id="eyes-eyebrows">
          <path fill-rule="evenodd" clip-rule="evenodd" d="M34.1563 4.99184C38.2448 8.44555 41.2056 13.2731 43.6538 17.6328L42.4393 18.4984C33.9682 8.97065 26.6886 6.54927 20.9806 7.34393C15.2298 8.14455 10.8082 12.2424 8.15604 16.3062C7.25126 17.6926 5.61467 18.9047 3.72159 18.5305C2.28821 18.2472 1.26525 17.6799 0.706742 16.8144C0.142 15.9392 0.162009 14.9316 0.437696 14.0185C0.878785 12.5574 2.04088 11.0827 3.2365 10.0336C3.00382 9.76036 2.8612 9.42846 2.87626 9.02893C2.90216 8.34161 3.40968 7.80681 3.837 7.45485C4.53687 6.87841 5.56008 6.36293 6.46708 5.98638C6.41947 5.7634 6.41591 5.52004 6.47368 5.26093C6.61974 4.60586 7.12274 4.02339 7.88528 3.50892C9.41041 2.47995 12.4043 1.43226 17.8029 0.558268C24.7703 -0.569718 30.0325 1.50819 34.1563 4.99184ZM33.1884 6.13771C29.3609 2.90447 24.5311 0.988539 18.0426 2.03899C12.6763 2.90775 9.96163 3.91752 8.72421 4.75238C8.10547 5.16983 7.96371 5.47086 7.93774 5.58735C7.92188 5.65847 7.93063 5.73276 8.04142 5.83799L8.92656 6.67872L7.77655 7.08831C6.77671 7.44442 5.5021 8.0267 4.79063 8.61269C4.49036 8.86 4.4058 9.0142 4.3831 9.06623C4.4179 9.11203 4.51888 9.20701 4.78846 9.33502L5.94169 9.88268L4.90187 10.6234C3.62433 11.5334 2.28396 13.093 1.87368 14.452C1.67464 15.1113 1.72178 15.6209 1.96711 16.0011C2.21868 16.3909 2.78874 16.8171 4.01241 17.059C5.05889 17.2658 6.16704 16.6094 6.89989 15.4864C9.68064 11.2255 14.4296 6.74148 20.7738 5.85826C26.0449 5.12442 32.2375 6.89843 39.1081 13.0155C37.4056 10.4725 35.4744 8.06885 33.1884 6.13771ZM4.36677 9.03571C4.36774 9.03555 4.37078 9.04064 4.37296 9.05141C4.36689 9.04125 4.3658 9.03586 4.36677 9.03571Z"/>
        </g>
        <!-- viewBox="0 0 50 26" -->
        <g id="eyes">
          <path fill-rule="evenodd" clip-rule="evenodd" d="M9.8799 4.85503C14.1612 2.31418 19.4197 0.25 25.0002 0.25C30.5807 0.25 35.8391 2.31418 40.1204 4.85503C44.4032 7.39672 47.764 10.4483 49.5646 12.5061L49.9427 12.9383L49.6242 13.416C46.8581 17.5651 38.1149 25.75 25.0002 25.75C11.8854 25.75 3.14219 17.5651 0.37613 13.416L0.0576172 12.9383L0.435735 12.5061C2.2363 10.4483 5.59715 7.39672 9.8799 4.85503ZM13.5296 4.59717C12.5308 5.07684 11.5672 5.59796 10.6454 6.14497C6.80172 8.42611 3.73561 11.1292 1.95579 13.0588C4.14101 16.0587 9.30665 20.89 16.8488 23.0908C16.6792 22.9815 16.5109 22.8683 16.3442 22.7513C13.4039 20.6869 10.9627 17.4034 10.7509 12.5326C10.5991 9.04268 11.7581 6.46089 13.5296 4.59717ZM33.1515 23.0908C33.3212 22.9815 33.4895 22.8683 33.6561 22.7513C36.5965 20.6869 39.0377 17.4034 39.2495 12.5326C39.4012 9.04268 38.2422 6.46089 36.4707 4.59717C37.4695 5.07684 38.4332 5.59796 39.3549 6.14497C43.1986 8.42611 46.2647 11.1292 48.0445 13.0588C45.8593 16.0587 40.6937 20.89 33.1515 23.0908ZM25.0002 24.2494C27.0392 24.1647 30.154 23.3774 32.7942 21.5237C35.4205 19.6797 37.5626 16.7966 37.7509 12.4674C37.9371 8.18366 35.9077 5.54779 33.261 3.94112C30.5696 2.30734 27.2407 1.75 25.0002 1.75C22.7596 1.75 19.4308 2.30734 16.7394 3.94112C14.0926 5.54779 12.0632 8.18366 12.2495 12.4674C12.4377 16.7966 14.5798 19.6797 17.2061 21.5237C19.8463 23.3774 22.9612 24.1647 25.0002 24.2494Z"/>
          <path d="M29.9958 12.2882C29.606 12.4254 29.1868 12.5 28.7502 12.5C26.6791 12.5 25.0002 10.8211 25.0002 8.75C25.0002 8.31335 25.0748 7.89413 25.212 7.50441C25.1418 7.50148 25.0711 7.5 25.0002 7.5C22.2387 7.5 20.0002 9.73858 20.0002 12.5C20.0002 15.2614 22.2387 17.5 25.0002 17.5C27.7616 17.5 30.0002 15.2614 30.0002 12.5C30.0002 12.429 29.9987 12.3584 29.9958 12.2882Z"/>
        </g>
        <!-- viewBox="0 0 26 36" -->
        <g id="face-ear">
          <path fill-rule="evenodd" clip-rule="evenodd" d="M6.3231 4.67184C3.79681 7.26291 2.35141 11.0217 1.72837 13.564L0.271484 13.2069C0.924759 10.5412 2.45741 6.48796 5.24909 3.62469C6.65467 2.18307 8.39688 1.02585 10.5186 0.522034C12.6448 0.0171823 15.0892 0.183515 17.8687 1.28706C20.8541 2.47232 22.8838 4.10502 24.157 6.01209C25.4297 7.91832 25.9089 10.0421 25.8894 12.1467C25.8506 16.3236 23.8504 20.5032 22.0361 23.1045C20.7143 24.9994 20.1253 26.4912 19.5747 27.8854C19.4132 28.2945 19.2549 28.6953 19.0825 29.0953C18.3033 30.9027 17.29 32.5015 14.6023 34.28C11.9918 36.0074 8.60886 35.8628 5.96924 34.4769C3.31223 33.0818 1.29165 30.3657 1.52793 26.8479L3.02455 26.9484C2.8354 29.7647 4.43103 31.9751 6.66654 33.1488C8.91944 34.3317 11.7054 34.3982 13.7746 33.029C16.1922 31.4293 17.0279 30.0723 17.705 28.5015C17.8549 28.1538 17.9994 27.7871 18.1521 27.3996C18.7086 25.9876 19.3738 24.2993 20.8058 22.2464C22.5258 19.7804 24.3545 15.8946 24.3894 12.1328C24.4067 10.2681 23.9839 8.45419 22.9095 6.84499C21.8357 5.23666 20.0733 3.77621 17.3152 2.6812C14.7768 1.67337 12.6477 1.55819 10.8652 1.98146C9.07825 2.40576 7.5765 3.38629 6.3231 4.67184ZM5.97624 14.1485C6.58342 11.972 7.36224 10.0859 8.49895 8.74143C9.73985 7.27377 11.44 6.41053 13.9968 6.60563C19.0422 6.99063 20.9738 11.5886 20.2067 14.6323L21.6612 14.9988C22.6142 11.2176 20.2457 5.5781 14.1109 5.10998C11.0776 4.87852 8.90765 5.9348 7.3535 7.77296C5.84079 9.56211 4.94764 12.0482 4.29642 14.6323L4.06121 15.5655H5.02367C5.77056 15.5655 6.34075 15.7518 6.70749 16.0429C7.05106 16.3155 7.28373 16.7312 7.28373 17.3749C7.28373 17.6371 7.09542 17.9392 6.5436 18.2426C6.01823 18.5315 5.35938 18.7026 4.91844 18.7651L5.12891 20.2503C5.69132 20.1706 6.53749 19.9578 7.26632 19.557C7.96868 19.1709 8.78373 18.4777 8.78373 17.3749C8.78373 16.3123 8.37139 15.4484 7.63993 14.8679C7.16753 14.493 6.59435 14.2613 5.97624 14.1485Z"/>
        </g>
        <!-- viewBox="0 0 46 53" -->
        <g id="clothes">
          <path fill-rule="evenodd" clip-rule="evenodd" d="M20.4591 1.00096C21.3714 0.392728 22.4074 0.25 23.0001 0.25C23.3915 0.25 24.2999 0.415626 25.1288 1.01845C26.0049 1.65567 26.7501 2.75347 26.7501 4.5C26.7501 5.93681 26.1408 6.96763 25.3727 7.64868C24.8538 8.10875 24.267 8.40698 23.7501 8.58052V10.5986L29.2234 14.2475C29.5069 14.2411 29.7638 14.2235 30.0321 14.2051C30.2471 14.1903 30.4695 14.1751 30.7189 14.1647C31.3187 14.1397 31.9604 14.1545 32.682 14.3349C34.1259 14.6959 35.7427 15.6819 38.0305 17.9697C41.6958 21.6351 44.6359 26.266 45.6585 28.1409L45.9553 28.685L36.371 36.5779L35.7501 35.75V52.25H10.2501V35.75L9.6292 36.5779L0.0449219 28.685L0.341701 28.1409C1.36436 26.266 4.30442 21.6351 7.96979 17.9697C10.2576 15.6819 11.8744 14.6959 13.3182 14.3349C14.0399 14.1545 14.6816 14.1397 15.2813 14.1647C15.5307 14.1751 15.7531 14.1903 15.9681 14.2051C16.2365 14.2235 16.4933 14.2411 16.7769 14.2475L22.2501 10.5986V7.36465L22.8768 7.2602C23.2595 7.19643 23.8734 6.97335 24.3775 6.52632C24.8594 6.09904 25.2501 5.46319 25.2501 4.5C25.2501 3.24653 24.7453 2.59433 24.2465 2.23155C23.7004 1.83437 23.1087 1.75 23.0001 1.75C22.5928 1.75 21.8788 1.85727 21.2911 2.24904C20.7512 2.60903 20.2501 3.24913 20.2501 4.5H18.7501C18.7501 2.75087 19.4991 1.64097 20.4591 1.00096ZM23.0001 11.9014L17.8075 15.3631C18.0753 16.8418 18.8971 17.7724 19.8552 18.361C20.9348 19.0242 22.1921 19.25 23.0001 19.25C23.8081 19.25 25.0655 19.0242 26.145 18.361C27.1032 17.7724 27.9249 16.8418 28.1927 15.3631L23.0001 11.9014ZM29.6498 15.7313C29.2778 17.6226 28.1828 18.8695 26.9302 19.6391C25.5681 20.4758 24.0254 20.75 23.0001 20.75C21.9748 20.75 20.4321 20.4758 19.07 19.6391C17.8174 18.8695 16.7224 17.6226 16.3505 15.7313C16.1544 15.7213 15.9624 15.7086 15.7806 15.6965C15.5777 15.6831 15.3875 15.6704 15.2189 15.6634C14.6937 15.6415 14.2104 15.658 13.682 15.7901C12.6259 16.0542 11.2427 16.8181 9.03045 19.0303C5.80942 22.2514 3.14868 26.276 1.96229 28.3208L9.37104 34.4221L11.9001 31.05L13.1001 31.95L11.7501 33.75V50.75H34.2501V33.75L32.9001 31.95L34.1001 31.05L36.6292 34.4221L44.038 28.3208C42.8516 26.276 40.1908 22.2514 36.9698 19.0303C34.7576 16.8181 33.3744 16.0542 32.3182 15.7901C31.7899 15.658 31.3066 15.6415 30.7813 15.6634C30.6127 15.6704 30.4226 15.6831 30.2196 15.6965C30.0379 15.7086 29.8458 15.7213 29.6498 15.7313Z"/>
        </g>
        <!-- viewBox="0 0 43 33" -->
        <g id="hair-beard">
          <path fill-rule="evenodd" clip-rule="evenodd" d="M2.69004 3.82341C2.26838 4.97175 2.0811 6.6406 2.43931 8.59169C2.79566 10.5326 2.97795 12.7696 3.14719 14.8464C3.16198 15.0279 3.17666 15.2081 3.19135 15.3868C3.37778 17.6539 3.56358 19.6318 3.93759 20.9051C4.08094 21.3931 4.61042 22.2942 5.56527 23.4121C6.49953 24.5059 7.78472 25.7417 9.35085 26.9021C12.4892 29.2275 16.6954 31.2072 21.4143 31.2072C26.1331 31.2072 30.3393 29.2275 33.4777 26.9021C35.0438 25.7417 36.329 24.5059 37.2633 23.4121C38.2181 22.2942 38.7476 21.3931 38.891 20.9051C39.265 19.6318 39.4508 17.6539 39.6372 15.3868C39.6519 15.2081 39.6666 15.0279 39.6814 14.8465C39.8506 12.7697 40.0329 10.5327 40.3893 8.59169C40.7475 6.6406 40.5602 4.97175 40.1385 3.82341C39.927 3.24724 39.667 2.8303 39.4152 2.57013C39.2351 2.3841 39.0837 2.30093 38.971 2.26829C38.9602 2.28254 38.9481 2.29942 38.9347 2.31932C38.813 2.49938 38.6717 2.79619 38.5108 3.21876C38.3007 3.77059 38.095 4.42936 37.869 5.1532C37.7467 5.54486 37.6185 5.95558 37.4804 6.37871C37.1006 7.54225 36.6526 8.77518 36.0841 9.72524C35.5383 10.6375 34.728 11.542 33.5451 11.542C31.7745 11.542 30.4308 11.0151 29.0511 10.474C28.8197 10.3832 28.5872 10.2921 28.3516 10.203C26.7055 9.58027 24.712 8.9609 21.4143 8.9609C18.1165 8.9609 16.1231 9.58027 14.477 10.203C14.2413 10.2921 14.0089 10.3832 13.7775 10.474C12.3977 11.0151 11.0541 11.542 9.28345 11.542C8.10054 11.542 7.2903 10.6375 6.74442 9.72524C6.17593 8.77518 5.72794 7.54225 5.34818 6.37871C5.21008 5.95557 5.08184 5.54485 4.95956 5.15319C4.73356 4.42935 4.52788 3.77059 4.31776 3.21876C4.15686 2.79619 4.0156 2.49938 3.89387 2.31932C3.88042 2.29942 3.86832 2.28254 3.8576 2.26829C3.74485 2.30093 3.59348 2.38409 3.4134 2.57013C3.16155 2.8303 2.90161 3.24724 2.69004 3.82341ZM3.79606 2.19902C3.79607 2.19869 3.79883 2.2006 3.80426 2.20575C3.79876 2.20192 3.79604 2.19935 3.79606 2.19902ZM39.0325 2.19902C39.0325 2.19935 39.0298 2.20192 39.0243 2.20575C39.0297 2.20061 39.0325 2.19869 39.0325 2.19902ZM2.33564 1.52685C2.76875 1.07942 3.33005 0.75 3.97622 0.75C4.56912 0.75 4.94281 1.19264 5.13654 1.47922C5.35835 1.80731 5.54878 2.23643 5.71958 2.68499C5.94529 3.27777 6.17567 4.01491 6.41192 4.77088C6.53112 5.15227 6.65181 5.53845 6.77415 5.9133C7.15258 7.07277 7.55756 8.16285 8.03158 8.95504C8.5282 9.785 8.95002 10.042 9.28345 10.042C10.7515 10.042 11.8168 9.62687 13.1952 9.08967C13.4348 8.99628 13.6839 8.8992 13.9463 8.79997C15.7119 8.13209 17.8884 7.4609 21.4143 7.4609C24.9401 7.4609 27.1167 8.13209 28.8823 8.79997C29.1446 8.8992 29.3937 8.99628 29.6334 9.08967C31.0118 9.62687 32.077 10.042 33.5451 10.042C33.8785 10.042 34.3004 9.785 34.797 8.95504C35.271 8.16285 35.676 7.07277 36.0544 5.9133C36.1768 5.53844 36.2975 5.15225 36.4166 4.77085C36.6529 4.0149 36.8833 3.27776 37.109 2.68499C37.2798 2.23643 37.4702 1.80731 37.692 1.47922C37.8858 1.19264 38.2594 0.75 38.8523 0.75C39.4985 0.75 40.0598 1.07942 40.4929 1.52685C40.9282 1.97648 41.2843 2.59199 41.5466 3.30637C42.0727 4.73915 42.2646 6.68386 41.8646 8.86256C41.5226 10.7252 41.3462 12.8874 41.1753 14.9829C41.1609 15.159 41.1466 15.3347 41.1322 15.5097C40.9501 17.7233 40.7569 19.8752 40.3302 21.3279C40.0944 22.1304 39.3919 23.2297 38.4039 24.3864C37.3953 25.5672 36.0269 26.8802 34.3707 28.1074C31.0646 30.557 26.5517 32.7072 21.4143 32.7072C16.2769 32.7072 11.764 30.557 8.45784 28.1074C6.80171 26.8802 5.43327 25.5672 4.42469 24.3864C3.43671 23.2297 2.73414 22.1304 2.4984 21.3279C2.07169 19.8752 1.87842 17.7233 1.6964 15.5097C1.68201 15.3347 1.66768 15.1591 1.65331 14.9829C1.48235 12.8874 1.30595 10.7253 0.963973 8.86256C0.563977 6.68386 0.75586 4.73915 1.28197 3.30637C1.54429 2.59199 1.90039 1.97648 2.33564 1.52685ZM16.2899 12.2431C18.1871 11.5662 20.1831 11.2929 21.4143 11.2929C22.6454 11.2929 24.6415 11.5662 26.5387 12.2431C28.41 12.9107 30.363 14.0346 31.2588 15.8563C31.4881 16.3224 31.6188 16.8336 31.4773 17.3299C31.3275 17.855 30.9315 18.1693 30.5308 18.3464C30.1413 18.5186 29.6781 18.5962 29.2149 18.6292C28.7423 18.6628 28.2165 18.653 27.6736 18.6195C26.6802 18.5583 25.5672 18.4132 24.5315 18.2783C24.4388 18.2662 24.3468 18.2542 24.2555 18.2424C23.1183 18.0948 22.12 17.9734 21.4143 17.9734C20.7085 17.9734 19.7102 18.0948 18.5731 18.2424C18.4818 18.2542 18.3897 18.2662 18.2971 18.2783C17.2614 18.4132 16.1484 18.5583 15.155 18.6195C14.6121 18.653 14.0863 18.6628 13.6136 18.6292C13.1505 18.5962 12.6872 18.5186 12.2978 18.3464C11.897 18.1693 11.5011 17.855 11.3513 17.3299C11.2098 16.8336 11.3405 16.3224 11.5697 15.8563C12.4656 14.0346 14.4185 12.9107 16.2899 12.2431ZM16.7939 13.6559C15.0349 14.2834 13.5485 15.2317 12.9158 16.5182C12.7964 16.761 12.7916 16.8776 12.7933 16.9101C12.8071 16.9228 12.8387 16.9456 12.9042 16.9745C13.0641 17.0452 13.3293 17.1052 13.72 17.1329C14.1013 17.1601 14.5547 17.1537 15.0627 17.1224C16.0023 17.0645 17.0647 16.9261 18.1128 16.7896C18.202 16.778 18.2911 16.7664 18.38 16.7548C19.4879 16.611 20.5914 16.4734 21.4143 16.4734C22.2371 16.4734 23.3406 16.611 24.4486 16.7548C24.5375 16.7664 24.6265 16.778 24.7157 16.7896C25.7638 16.9261 26.8263 17.0645 27.7658 17.1224C28.2739 17.1537 28.7273 17.1601 29.1085 17.1329C29.4992 17.1052 29.7644 17.0452 29.9243 16.9745C29.9898 16.9456 30.0215 16.9228 30.0353 16.9101C30.0369 16.8776 30.0322 16.761 29.9128 16.5182C29.2801 15.2317 27.7937 14.2834 26.0347 13.6559C24.3014 13.0375 22.476 12.7929 21.4143 12.7929C20.3525 12.7929 18.5271 13.0375 16.7939 13.6559ZM30.0446 16.899C30.045 16.8991 30.0438 16.9015 30.0396 16.9059C30.042 16.9011 30.0441 16.8989 30.0446 16.899ZM12.784 16.899C12.7844 16.8989 12.7865 16.9011 12.789 16.9059C12.7848 16.9015 12.7836 16.8991 12.784 16.899Z"/>
        </g>
        <!-- viewBox="0 0 31 31" -->
        <g id="back">
          <path d="M0.738281 0.813965H6.73828V6.81396H0.738281V0.813965Z"/>
          <path d="M6.73828 6.81396H12.7383V12.814H6.73828V6.81396Z"/>
          <path d="M0.738281 12.814H6.73828V18.814H0.738281V12.814Z"/>
          <path d="M6.73828 18.814H12.7383V24.814H6.73828V18.814Z"/>
          <path d="M0.738281 24.814H6.73828V30.814H0.738281V24.814Z"/>
          <path d="M12.7383 0.813965H18.7383V6.81396H12.7383V0.813965Z"/>
          <path d="M18.7383 6.81396H24.7383V12.814H18.7383V6.81396Z"/>
          <path d="M12.7383 12.814H18.7383V18.814H12.7383V12.814Z"/>
          <path d="M18.7383 18.814H24.7383V24.814H18.7383V18.814Z"/>
          <path d="M12.7383 24.814H18.7383V30.814H12.7383V24.814Z"/>
          <path d="M24.7383 0.813965H30.7383V6.81396H24.7383V0.813965Z"/>
          <path d="M24.7383 12.814H30.7383V18.814H24.7383V12.814Z"/>
          <path d="M24.7383 24.814H30.7383V30.814H24.7383V24.814Z"/>
        </g>
        <!-- viewBox="0 0 16 25" -->
        <g id="up">
          <path fill-rule="evenodd" clip-rule="evenodd" d="M7.71267 2.40114L1.59863 9.82533L0.826702 9.18962L8.21267 0.220947L15.5986 9.18962L14.8267 9.82533L8.71267 2.40114L8.71267 24.0075L7.71267 24.0075L7.71267 2.40114Z"/>
        </g>
        <!-- viewBox="0 0 15 14" -->
        <g id="undo">
          <path d="M2.15599 3.48029L3.78353 4.85891L3.13719 5.62196L0.0185547 2.98029L3.13719 0.338623L3.78354 1.10167L2.15599 2.48029H9.3471V3.48029H2.15599Z"/>
          <path d="M1.4032 12.2566H9.3471V13.2566H1.4032V12.2566Z"/>
          <path d="M14.7359 7.86807C14.7359 10.8441 12.3231 13.2566 9.3471 13.2566V12.2566C11.7708 12.2566 13.7359 10.2918 13.7359 7.86807C13.7359 5.44434 11.7708 3.48029 9.3471 3.48029V2.48029C12.3231 2.48029 14.7359 4.89206 14.7359 7.86807Z"/>
        </g>
        <!-- viewBox="0 0 20 16" -->
        <g id="soc-twitter">
          <path d="M19.938 0.695801C19.197 1.11175 17.7102 1.67863 16.8362 1.84213C16.8106 1.84842 16.7897 1.8565 16.765 1.86279C15.9926 1.14229 14.9343 0.695801 13.763 0.695801C11.4022 0.695801 9.48799 2.50603 9.48799 4.7385C9.48799 4.85619 9.47754 5.0727 9.48799 5.18769C6.30264 5.18769 3.87824 3.61014 2.13974 1.59418C1.95069 2.04337 1.86804 2.75309 1.86804 3.41968C1.86804 4.67831 2.90829 5.91448 4.52804 6.68079C4.22974 6.75356 3.90104 6.80567 3.55904 6.80567C3.00709 6.80567 2.42284 6.66821 1.88799 6.25137C1.88799 6.26664 1.88799 6.28101 1.88799 6.29719C1.88799 8.05621 3.86209 9.25375 5.61769 9.58704C5.26144 9.78558 4.54324 9.80535 4.19269 9.80535C3.94569 9.80535 3.07169 9.69844 2.83799 9.65712C3.32629 11.099 5.08759 11.9093 6.76624 11.9381C5.45334 12.9119 4.54229 13.2731 1.85379 13.2731H0.937988C2.63659 14.3026 4.79974 15.0707 6.96764 15.0707C14.0261 15.0707 18.038 9.98323 18.038 5.18769C18.038 5.11043 18.0361 4.94872 18.0332 4.78611C18.0332 4.76994 18.038 4.75467 18.038 4.7385C18.038 4.71424 18.0304 4.69089 18.0304 4.66663C18.0275 4.54445 18.0247 4.43036 18.0218 4.37106C18.7723 3.85899 19.4231 3.22024 19.938 2.49256C19.2492 2.78183 18.5101 2.97588 17.734 3.06392C18.5263 2.61474 19.652 1.54387 19.938 0.695801Z"/>
        </g>
        <!-- viewBox="0 0 29 12" -->
        <g id="shrink">
          <path fill-rule="evenodd" clip-rule="evenodd" d="M5.57875 0.530518L11.9433 5.91232L5.57875 11.2941L4.93306 10.5305L9.80328 6.41232L0.168945 6.41232V5.41232L9.80328 5.41232L4.93306 1.29412L5.57875 0.530518ZM18.5346 6.41232L23.4048 10.5305L22.7591 11.2941L16.3946 5.91232L22.7591 0.530518L23.4048 1.29412L18.5346 5.41232L28.1689 5.41232V6.41232L18.5346 6.41232Z"/>
        </g>
        <!-- viewBox="0 0 14 18" -->
        <g id="share">
          <path fill-rule="evenodd" clip-rule="evenodd" d="M7.48926 0.731934L10.8708 4.72401L10.1077 5.37035L7.98926 2.86937V12.0055H6.98926V2.86937L4.87078 5.37035L4.10773 4.72401L7.48926 0.731934ZM0.989258 7.50551H4.48926V8.50551H1.98926V16.5055H12.9893V8.50551H10.4893V7.50551H13.9893V17.5055H0.989258V7.50551Z"/>
        </g>
        <!-- viewBox="0 0 20 20" -->
        <g id="rotate-right">
          <path fill-rule="evenodd" clip-rule="evenodd" d="M7.90579 0.914551L19.3659 2.82665L15.2918 13.7074L14.3553 13.3568L17.8121 4.1246C17.5396 4.24601 17.2202 4.39352 16.8612 4.56804C15.6208 5.17104 13.911 6.09526 12.0395 7.37748C8.29208 9.94501 3.92427 13.9287 1.35571 19.6165L0.444336 19.2049C3.11458 13.2919 7.63912 9.18018 11.4743 6.55253C13.3942 5.23715 15.1483 4.28882 16.424 3.66868C16.5985 3.58383 16.7641 3.5051 16.9201 3.43239L7.74122 1.90092L7.90579 0.914551Z"/>
        </g>
        <!-- viewBox="0 0 20 19" -->
        <g id="rotate-left">
          <path fill-rule="evenodd" clip-rule="evenodd" d="M1.75644 3.23837L5.21326 12.4705L4.27675 12.8212L0.202637 1.94042L11.6627 0.0283203L11.8273 1.01469L2.64845 2.54616C2.80437 2.61887 2.97001 2.6976 3.14455 2.78245C4.42021 3.40259 6.17433 4.35092 8.09419 5.6663C11.9294 8.29395 16.4539 12.4057 19.1242 18.3187L18.2128 18.7302C15.6442 13.0424 11.2764 9.05878 7.52898 6.49125C5.65752 5.20903 3.94774 4.28481 2.70734 3.68181C2.34834 3.50729 2.02887 3.35978 1.75644 3.23837Z"/>
        </g>
        <!-- viewBox="0 0 26 16" -->
        <g id="right">
          <path fill-rule="evenodd" clip-rule="evenodd" d="M23.4692 8.81272L16.045 14.9268L16.6807 15.6987L25.6494 8.31272L16.6807 0.926758L16.045 1.69869L23.4692 7.81272H0.862888V8.81272H23.4692Z"/>
        </g>
        <!-- viewBox="0 0 14 15" -->
        <g id="reset">
          <path fill-rule="evenodd" clip-rule="evenodd" d="M13.1281 0.254395L13.5519 4.75897L9.03893 4.43601L9.11031 3.43856L11.9192 3.63958C10.8109 2.48239 9.24117 1.76001 7.4991 1.76001C4.13502 1.76001 1.41846 4.4521 1.41846 7.76001C1.41846 11.0679 4.13502 13.76 7.4991 13.76C9.57827 13.76 11.412 12.731 12.5086 11.1619L13.3283 11.7348C12.0506 13.5628 9.91535 14.76 7.4991 14.76C3.5944 14.76 0.418457 11.6318 0.418457 7.76001C0.418457 3.88823 3.5944 0.760013 7.4991 0.760013C9.37559 0.760013 11.0826 1.48207 12.3501 2.66092L12.1325 0.348042L13.1281 0.254395Z"/>
        </g>
        <!-- viewBox="0 0 16 14" -->
        <g id="redo">
          <path d="M13.3157 3.48029L11.6882 4.85891L12.3345 5.62196L15.4531 2.98029L12.3345 0.338623L11.6882 1.10167L13.3157 2.48029H6.1246V3.48029H13.3157Z"/>
          <path d="M14.0685 12.2566H6.1246V13.2566H14.0685V12.2566Z"/>
          <path d="M0.73584 7.86807C0.73584 10.8441 3.14858 13.2566 6.1246 13.2566V12.2566C3.70087 12.2566 1.73584 10.2918 1.73584 7.86807C1.73584 5.44434 3.70087 3.48029 6.1246 3.48029V2.48029C3.14858 2.48029 0.73584 4.89206 0.73584 7.86807Z"/>
        </g>
        <!-- viewBox="0 0 23 17" -->
        <g id="random">
          <path fill-rule="evenodd" clip-rule="evenodd" d="M16.3195 1.43433C14.9388 1.43433 13.8195 2.55361 13.8195 3.93433V12.9343C13.8195 14.315 14.9388 15.4343 16.3195 15.4343C17.7002 15.4343 18.8195 14.315 18.8195 12.9343H19.8195C19.8195 14.8673 18.2525 16.4343 16.3195 16.4343C14.3865 16.4343 12.8195 14.8673 12.8195 12.9343V3.43433C13.0621 1.73818 14.5563 0.434326 16.3195 0.434326C18.0827 0.434326 19.5769 1.73818 19.8195 3.43433V7.57047L21.938 5.06949L22.701 5.71583L19.3195 9.70791L15.938 5.71583L16.701 5.06949L18.8195 7.57047V3.93433C18.8195 2.55361 17.7002 1.43433 16.3195 1.43433Z"/>
          <path fill-rule="evenodd" clip-rule="evenodd" d="M7.31951 15.4343C8.70022 15.4343 9.81951 14.315 9.81951 12.9343V3.93433C9.81951 2.55361 8.70022 1.43433 7.31951 1.43433C5.9388 1.43433 4.81951 2.55361 4.81951 3.93433H3.81951C3.81951 2.00133 5.38651 0.434326 7.31951 0.434326C9.25251 0.434326 10.8195 2.00133 10.8195 3.93433V13.4343C10.5769 15.1305 9.08275 16.4343 7.31951 16.4343C5.55627 16.4343 4.06213 15.1305 3.81951 13.4343V9.29819L1.70103 11.7992L0.937988 11.1528L4.31951 7.16074L7.70103 11.1528L6.93799 11.7992L4.81951 9.29819V12.9343C4.81951 14.315 5.9388 15.4343 7.31951 15.4343Z"/>
        </g>
        <!-- viewBox="0 0 23 23" -->
        <g id="plus">
          <path fill-rule="evenodd" clip-rule="evenodd" d="M11.3491 1.39111C5.82627 1.39111 1.34912 5.86827 1.34912 11.3911C1.34912 16.914 5.82627 21.3911 11.3491 21.3911C16.872 21.3911 21.3491 16.914 21.3491 11.3911C21.3491 5.86827 16.872 1.39111 11.3491 1.39111ZM0.349121 11.3911C0.349121 5.31598 5.27399 0.391113 11.3491 0.391113C17.4243 0.391113 22.3491 5.31598 22.3491 11.3911C22.3491 17.4662 17.4243 22.3911 11.3491 22.3911C5.27399 22.3911 0.349121 17.4662 0.349121 11.3911ZM11.8491 11.8911V15.8911H10.8491V11.8911H6.84912V10.8911H10.8491V6.89111H11.8491V10.8911H15.8491V11.8911H11.8491Z"/>
        </g>
        <!-- viewBox="0 0 17 19" -->
        <g id="soc-pinterest">
          <path d="M3.97732 11.0417L4.21399 10.1833C4.21399 10.1833 4.32399 9.95506 4.10599 9.71713C3.83732 9.42439 3.25732 8.89072 3.25732 7.56256C3.25732 5.19415 5.32666 2.61493 9.07866 2.61493C12.7613 2.61493 14.0227 4.78094 14.0227 6.57411C14.0227 8.80398 12.8407 12.1379 10.3447 12.1379C8.79466 12.1379 8.34799 11.0573 8.34799 10.5285C8.33799 10.3496 8.38399 10.1695 8.40332 10.084C8.42266 9.99903 9.05266 8.18598 9.25332 7.53967C9.70399 6.09104 9.31866 4.88575 7.84466 4.88575C5.76666 4.88575 5.01866 7.52762 5.93066 9.21779L4.44732 14.7039C4.44732 14.7039 4.24265 15.602 4.20265 16.1321C4.14132 16.9458 4.26932 18.1499 4.31332 18.5089C4.34532 18.7691 4.34532 18.8938 4.47666 18.9173C4.60799 18.9402 4.83199 18.739 5.01265 18.4981C5.23932 18.1945 6.00999 17.2103 6.32332 16.5844C6.60265 16.0261 6.65199 16.0122 6.94132 15.0238C7.23065 14.0347 7.62199 12.6445 7.62199 12.6445C7.62199 12.6445 8.43466 13.9323 10.6327 13.9323C13.7587 13.9323 16.938 11.4724 16.938 6.87408C16.938 3.14679 13.3647 0.847656 9.31866 0.847656C4.22199 0.847656 0.937988 4.11235 0.937988 7.26199C0.937988 10.3351 2.82066 11.0561 3.21532 11.2627C3.60932 11.4711 3.88932 11.3248 3.97732 11.0417Z"/>
        </g>
        <!-- viewBox="0 0 20 12" -->
        <g id="ok">
          <path fill-rule="evenodd" clip-rule="evenodd" d="M19.037 0.977859L8.01619 11.9987L7.67308 11.6556L7.3299 11.9987L0.309082 4.97792L1.01619 4.27081L7.67301 10.9276L18.3299 0.270752L19.037 0.977859Z"/>
        </g>
        <!-- viewBox="0 0 28 28" -->
        <g id="move">
          <path fill-rule="evenodd" clip-rule="evenodd" d="M13.7292 0.1604L18.111 5.34235L17.3474 5.98805L14.2292 2.30043V9.73477H13.2292V2.30043L10.111 5.98805L9.3474 5.34236L13.7292 0.1604ZM2.29482 14.2348L5.98243 17.353L5.33674 18.1166L0.154785 13.7348L5.33674 9.35296L5.98243 10.1166L2.29482 13.2348L9.72915 13.2348V14.2348L2.29482 14.2348ZM22.1217 9.35296L27.3036 13.7348L22.1217 18.1166L21.476 17.353L25.1636 14.2348L17.7292 14.2348V13.2348L25.1636 13.2348L21.476 10.1166L22.1217 9.35296ZM13.2292 25.1691L13.2292 17.7347H14.2292L14.2292 25.1691L17.3474 21.4815L18.111 22.1272L13.7292 27.3091L9.3474 22.1272L10.111 21.4815L13.2292 25.1691Z"/>
        </g>
        <!-- viewBox="0 0 23 23" -->
        <g id="minus">
          <path fill-rule="evenodd" clip-rule="evenodd" d="M11.8979 1.32495C6.3751 1.32495 1.89795 5.8021 1.89795 11.325C1.89795 16.8478 6.3751 21.325 11.8979 21.325C17.4208 21.325 21.8979 16.8478 21.8979 11.325C21.8979 5.8021 17.4208 1.32495 11.8979 1.32495ZM0.897949 11.325C0.897949 5.24982 5.82282 0.324951 11.8979 0.324951C17.9731 0.324951 22.8979 5.24982 22.8979 11.325C22.8979 17.4001 17.9731 22.325 11.8979 22.325C5.82282 22.325 0.897949 17.4001 0.897949 11.325ZM16.3979 11.825H7.39795V10.825H16.3979V11.825Z"/>
        </g>
        <!-- viewBox="0 0 25 16" -->
        <g id="left">
          <path fill-rule="evenodd" clip-rule="evenodd" d="M2.60305 7.88597L10.0272 14L9.39152 14.7719L0.422852 7.38597L9.39152 0L10.0272 0.77193L2.60305 6.88597H24.2094V7.88597H2.60305Z"/>
        </g>
        <!-- viewBox="0 0 29 18" -->
        <g id="soc-gplus">
          <path d="M23.4497 4.42236L25.4497 4.42237V12.399H23.4497V4.42236Z"/>
          <path d="M20.438 7.41486H28.438V9.37301H20.438V7.41486ZM18.1167 7.12113L18.0685 6.92532H9.61656V9.86255H15.4023C14.9423 12.6402 12.4824 14.7579 9.61656 14.7579C6.42092 14.7579 3.83085 12.1281 3.83085 8.88347C3.83085 5.63881 6.42092 3.00901 9.61656 3.00901C11.063 3.00901 12.3821 3.55142 13.3966 4.44336L15.4707 2.38142C13.9279 0.947073 11.873 0.0717773 9.61656 0.0717773C4.8231 0.0717773 0.937988 4.01648 0.937988 8.88347C0.937988 13.7505 4.8231 17.6952 9.61656 17.6952C14.41 17.6952 18.2951 13.7505 18.2951 8.88347C18.2951 8.27938 18.2315 7.69095 18.1167 7.12113Z"/>
        </g>
        <!-- viewBox="0 0 11 18" -->
        <g id="soc-facebook">
          <path d="M4.2057 17.0975V8.88324H0.937988V6.14514H4.2057V4.67478C4.2057 1.89082 5.82403 0.668945 8.58524 0.668945C9.90784 0.668945 10.6071 0.751088 10.938 0.788737V3.40704H9.05497C7.88268 3.40704 7.4734 3.92523 7.4734 4.97529V6.14514H10.9086L10.4421 8.88324H7.4734V17.0975H4.2057Z"/>
        </g>
        <!-- viewBox="0 0 30 12" -->
        <g id="expand">
          <path fill-rule="evenodd" clip-rule="evenodd" d="M2.71962 6.2297L7.58984 10.3479L6.94415 11.1115L0.57959 5.7297L6.94415 0.3479L7.58984 1.1115L2.71962 5.2297L12.354 5.2297V6.2297L2.71962 6.2297ZM22.7638 0.3479L29.1283 5.7297L22.7638 11.1115L22.1181 10.3479L26.9883 6.2297L17.354 6.2297V5.2297L26.9883 5.2297L22.1181 1.1115L22.7638 0.3479Z"/>
        </g>
        <!-- viewBox="0 0 13 17" -->
        <g id="download">
          <path fill-rule="evenodd" clip-rule="evenodd" d="M5.70898 12.3972V0.735107H6.70898V12.3972L9.83153 8.80302L10.5864 9.45886L6.20898 14.4975L1.83153 9.45886L2.58643 8.80302L5.70898 12.3972ZM12.209 15.7351V16.7351H0.208984V15.7351H12.209Z"/>
        </g>
        <!-- viewBox="0 0 15 26" -->
        <g id="down">
          <path fill-rule="evenodd" clip-rule="evenodd" d="M6.94655 22.8305L0.83252 15.4064L0.0605889 16.0421L7.44655 25.0107L14.8325 16.0421L14.0606 15.4064L7.94655 22.8305L7.94655 0.224216L6.94655 0.224216L6.94655 22.8305Z"/>
        </g>
        <!-- viewBox="0 0 36 16" -->
        <g id="brows1">
          <path fill-rule="evenodd" clip-rule="evenodd" d="M31.7642 8.96949C33.3253 10.1524 34.4558 11.8057 35.3907 13.2989L34.9269 13.5953C31.6923 10.3322 28.9127 9.50289 26.7331 9.77506C24.5372 10.0493 22.8489 11.4527 21.8362 12.8446C21.4907 13.3194 20.8658 13.7345 20.143 13.6063C19.5957 13.5093 19.205 13.315 18.9918 13.0186C18.7761 12.7189 18.7838 12.3738 18.8891 12.061C19.0575 11.5606 19.5012 11.0555 19.9577 10.6962C19.8689 10.6027 19.8144 10.489 19.8202 10.3522C19.8301 10.1168 20.0239 9.93359 20.187 9.81305C20.4543 9.61562 20.845 9.43907 21.1913 9.31011C21.1731 9.23374 21.1718 9.15039 21.1938 9.06165C21.2496 8.8373 21.4417 8.63781 21.7328 8.46161C22.3152 8.10919 23.4584 7.75037 25.5198 7.45104C28.1802 7.06471 30.1895 7.77638 31.7642 8.96949ZM31.3946 9.36194C29.9331 8.25459 28.0889 7.5984 25.6113 7.95817C23.5623 8.25571 22.5257 8.60155 22.0532 8.88748C21.8169 9.03045 21.7628 9.13355 21.7529 9.17345C21.7468 9.1978 21.7502 9.22325 21.7925 9.25929L22.1304 9.54723L21.6913 9.68751C21.3095 9.80947 20.8228 10.0089 20.5512 10.2096C20.4365 10.2943 20.4042 10.3471 20.3956 10.3649C20.4089 10.3806 20.4474 10.4131 20.5503 10.457L20.9907 10.6446L20.5936 10.8982C20.1058 11.2099 19.594 11.7441 19.4374 12.2095C19.3614 12.4353 19.3794 12.6098 19.473 12.74C19.5691 12.8736 19.7868 13.0195 20.254 13.1024C20.6536 13.1732 21.0767 12.9484 21.3566 12.5638C22.4184 11.1045 24.2317 9.56873 26.6542 9.26623C28.6669 9.0149 31.0315 9.62248 33.6549 11.7175C33.0049 10.8466 32.2675 10.0233 31.3946 9.36194ZM20.3893 10.3545C20.3897 10.3544 20.3909 10.3562 20.3917 10.3599C20.3894 10.3564 20.389 10.3545 20.3893 10.3545Z"/>
          <path fill-rule="evenodd" clip-rule="evenodd" d="M6.45599 4.19268C4.49775 4.23219 2.61133 4.90543 0.977443 5.5641L1.1784 6.07648C5.71323 5.33741 8.44952 6.3001 10.053 7.80126C11.6684 9.31368 12.2096 11.4414 12.2109 13.1627C12.2113 13.7499 12.473 14.453 13.1331 14.7742C13.633 15.0174 14.0632 15.0897 14.4099 14.9752C14.7606 14.8595 14.9572 14.5758 15.0559 14.2609C15.2137 13.757 15.1515 13.0876 14.9933 12.5286C15.1202 12.5051 15.2311 12.4451 15.3068 12.331C15.4372 12.1348 15.388 11.8727 15.3269 11.6793C15.2267 11.3625 15.0143 10.99 14.8099 10.6821C14.8695 10.631 14.9196 10.5644 14.9539 10.4796C15.0407 10.2653 15.0025 9.99105 14.8705 9.67736C14.6064 9.04998 13.8924 8.08779 12.4005 6.6341C10.4751 4.75794 8.43119 4.15282 6.45599 4.19268ZM6.52438 4.72742C8.3576 4.69043 10.2354 5.24341 12.0284 6.99061C13.5114 8.4356 14.1468 9.32462 14.361 9.83365C14.4681 10.0882 14.4513 10.2034 14.4359 10.2415C14.4265 10.2648 14.4088 10.2834 14.3534 10.2877L13.9108 10.322L14.1836 10.6936C14.4208 11.0167 14.6974 11.464 14.7992 11.7861C14.8422 11.922 14.8373 11.9837 14.8338 12.0032C14.8138 12.0081 14.7635 12.0118 14.6545 11.9867L14.188 11.8797L14.3601 12.3183C14.5716 12.8571 14.6718 13.5901 14.525 14.0587C14.4537 14.2861 14.3366 14.4167 14.1843 14.467C14.0281 14.5186 13.7662 14.5088 13.3395 14.3012C12.9746 14.1236 12.7643 13.6931 12.764 13.2174C12.7626 11.4127 12.198 9.10446 10.4159 7.436C8.93519 6.04974 6.66501 5.15161 3.31116 5.30478C4.34899 4.98218 5.42943 4.74952 6.52438 4.72742ZM14.845 11.9984C14.8447 11.9982 14.8428 11.9989 14.8399 12.0014C14.8438 11.9999 14.8453 11.9987 14.845 11.9984Z"/>
        </g>
        <!-- viewBox="0 0 36 16" -->
        <g id="brows2">
          <path fill-rule="evenodd" clip-rule="evenodd" d="M4.32226 9.00782C2.76114 10.1907 1.63058 11.8441 0.69577 13.3372L1.15949 13.6337C4.3941 10.3705 7.17373 9.54122 9.35328 9.81339C11.5492 10.0876 13.2375 11.4911 14.2502 12.8829C14.5957 13.3577 15.2206 13.7728 15.9435 13.6447C16.4908 13.5477 16.8814 13.3534 17.0946 13.0569C17.3103 12.7572 17.3026 12.4121 17.1974 12.0993C17.0289 11.599 16.5852 11.0939 16.1287 10.7346C16.2175 10.641 16.272 10.5273 16.2662 10.3905C16.2563 10.1551 16.0626 9.97192 15.8994 9.85138C15.6321 9.65395 15.2414 9.4774 14.8951 9.34844C14.9133 9.27207 14.9147 9.18872 14.8926 9.09998C14.8368 8.87563 14.6448 8.67614 14.3536 8.49994C13.7712 8.14752 12.628 7.7887 10.5667 7.48937C7.90621 7.10304 5.89691 7.81471 4.32226 9.00782ZM4.69187 9.40027C6.15333 8.29292 7.99755 7.63673 10.4751 7.9965C12.5242 8.29404 13.5608 8.63988 14.0333 8.92581C14.2695 9.06878 14.3236 9.17188 14.3336 9.21178C14.3396 9.23613 14.3363 9.26158 14.294 9.29762L13.956 9.58556L14.3951 9.72584C14.7769 9.8478 15.2636 10.0472 15.5352 10.2479C15.6499 10.3326 15.6822 10.3854 15.6909 10.4033C15.6776 10.4189 15.639 10.4515 15.5361 10.4953L15.0957 10.6829L15.4928 10.9366C15.9806 11.2482 16.4924 11.7824 16.6491 12.2478C16.7251 12.4736 16.7071 12.6482 16.6134 12.7784C16.5173 12.9119 16.2997 13.0579 15.8324 13.1407C15.4328 13.2115 15.0097 12.9867 14.7299 12.6021C13.668 11.1428 11.8547 9.60706 9.43226 9.30456C7.41953 9.05323 5.05496 9.66081 2.43149 11.7559C3.08156 10.8849 3.81897 10.0617 4.69187 9.40027ZM15.6971 10.3928C15.6967 10.3928 15.6956 10.3945 15.6947 10.3982C15.6971 10.3947 15.6975 10.3929 15.6971 10.3928Z"/>
          <path fill-rule="evenodd" clip-rule="evenodd" d="M29.6304 4.23101C31.5887 4.27052 33.4751 4.94376 35.109 5.60243L34.908 6.11481C30.3732 5.37574 27.6369 6.33843 26.0335 7.83959C24.418 9.35201 23.8769 11.4798 23.8755 13.201C23.8751 13.7882 23.6134 14.4914 22.9533 14.8125C22.4535 15.0557 22.0232 15.1281 21.6765 15.0136C21.3259 14.8978 21.1292 14.6141 21.0306 14.2992C20.8728 13.7954 20.9349 13.1259 21.0931 12.5669C20.9662 12.5434 20.8554 12.4835 20.7796 12.3694C20.6493 12.1731 20.6984 11.911 20.7596 11.7176C20.8597 11.4008 21.0721 11.0283 21.2765 10.7205C21.2169 10.6694 21.1668 10.6027 21.1325 10.518C21.0458 10.3037 21.0839 10.0294 21.2159 9.71569C21.48 9.08831 22.194 8.12612 23.6859 6.67243C25.6113 4.79627 27.6552 4.19115 29.6304 4.23101ZM29.562 4.76575C27.7288 4.72876 25.8511 5.28174 24.058 7.02894C22.5751 8.47393 21.9396 9.36295 21.7254 9.87198C21.6183 10.1265 21.6351 10.2417 21.6505 10.2798C21.6599 10.3031 21.6776 10.3217 21.733 10.326L22.1757 10.3604L21.9028 10.7319C21.6656 11.055 21.3891 11.5024 21.2872 11.8244C21.2442 11.9603 21.2492 12.022 21.2526 12.0415C21.2726 12.0464 21.3229 12.0501 21.432 12.0251L21.8985 11.918L21.7263 12.3566C21.5148 12.8955 21.4147 13.6284 21.5615 14.0971C21.6327 14.3244 21.7498 14.4551 21.9021 14.5054C22.0583 14.5569 22.3202 14.5471 22.7469 14.3395C23.1119 14.162 23.3221 13.7314 23.3224 13.2558C23.3239 11.451 23.8884 9.14279 25.6705 7.47433C27.1512 6.08807 29.4214 5.18994 32.7753 5.34311C31.7374 5.02051 30.657 4.78785 29.562 4.76575ZM21.2414 12.0368C21.2417 12.0365 21.2437 12.0372 21.2465 12.0397C21.2426 12.0383 21.2412 12.037 21.2414 12.0368Z"/>
        </g>
        <!-- viewBox="0 0 33 16" -->
        <g id="brows3">
          <path fill-rule="evenodd" clip-rule="evenodd" d="M26.38 4.23101C28.3382 4.27052 30.2246 4.94376 31.8585 5.60243L31.6575 6.11481C27.1227 5.37574 24.3864 6.33843 22.783 7.83959C21.1675 9.35201 20.6264 11.4798 20.625 13.201C20.6246 13.7882 20.363 14.4914 19.7028 14.8125C19.203 15.0557 18.7727 15.1281 18.426 15.0136C18.0754 14.8978 17.8787 14.6141 17.7801 14.2992C17.6223 13.7954 17.6844 13.1259 17.8426 12.5669C17.7157 12.5434 17.6049 12.4835 17.5291 12.3694C17.3988 12.1731 17.4479 11.911 17.5091 11.7176C17.6093 11.4008 17.8216 11.0283 18.026 10.7205C17.9664 10.6694 17.9163 10.6027 17.882 10.518C17.7953 10.3037 17.8334 10.0294 17.9655 9.71569C18.2295 9.08831 18.9435 8.12612 20.4354 6.67243C22.3608 4.79627 24.4047 4.19115 26.38 4.23101ZM26.3116 4.76575C24.4783 4.72876 22.6006 5.28174 20.8075 7.02894C19.3246 8.47393 18.6892 9.36295 18.4749 9.87198C18.3678 10.1265 18.3846 10.2417 18.4 10.2798C18.4094 10.3031 18.4271 10.3217 18.4825 10.326L18.9252 10.3604L18.6524 10.7319C18.4151 11.055 18.1386 11.5024 18.0367 11.8244C17.9938 11.9603 17.9987 12.022 18.0021 12.0415C18.0221 12.0464 18.0724 12.0501 18.1815 12.0251L18.648 11.918L18.4758 12.3566C18.2643 12.8955 18.1642 13.6284 18.311 14.0971C18.3822 14.3244 18.4993 14.4551 18.6517 14.5054C18.8078 14.5569 19.0697 14.5471 19.4965 14.3395C19.8614 14.162 20.0716 13.7314 20.072 13.2558C20.0734 11.451 20.6379 9.14279 22.42 7.47433C23.9007 6.08807 26.1709 5.18994 29.5248 5.34311C28.487 5.02051 27.4065 4.78785 26.3116 4.76575ZM17.9909 12.0368C17.9912 12.0365 17.9932 12.0372 17.996 12.0397C17.9921 12.0383 17.9907 12.037 17.9909 12.0368Z"/>
          <path fill-rule="evenodd" clip-rule="evenodd" d="M5.74847 4.23101C3.79023 4.27052 1.90381 4.94376 0.269924 5.60243L0.470881 6.11481C5.00571 5.37574 7.742 6.33843 9.34544 7.83959C10.9609 9.35201 11.502 11.4798 11.5034 13.201C11.5038 13.7882 11.7655 14.4914 12.4256 14.8125C12.9254 15.0557 13.3557 15.1281 13.7024 15.0136C14.0531 14.8978 14.2497 14.6141 14.3483 14.2992C14.5062 13.7954 14.444 13.1259 14.2858 12.5669C14.4127 12.5434 14.5235 12.4835 14.5993 12.3694C14.7297 12.1731 14.6805 11.911 14.6193 11.7176C14.5192 11.4008 14.3068 11.0283 14.1024 10.7205C14.162 10.6694 14.2121 10.6027 14.2464 10.518C14.3331 10.3037 14.295 10.0294 14.163 9.71569C13.8989 9.08831 13.1849 8.12612 11.693 6.67243C9.76759 4.79627 7.72367 4.19115 5.74847 4.23101ZM5.81686 4.76575C7.65008 4.72876 9.52783 5.28174 11.3209 7.02894C12.8039 8.47393 13.4393 9.36295 13.6535 9.87198C13.7606 10.1265 13.7438 10.2417 13.7284 10.2798C13.719 10.3031 13.7013 10.3217 13.6459 10.326L13.2032 10.3604L13.4761 10.7319C13.7133 11.055 13.9898 11.5024 14.0917 11.8244C14.1347 11.9603 14.1297 12.022 14.1263 12.0415C14.1063 12.0464 14.056 12.0501 13.947 12.0251L13.4804 11.918L13.6526 12.3566C13.8641 12.8955 13.9642 13.6284 13.8174 14.0971C13.7462 14.3244 13.6291 14.4551 13.4768 14.5054C13.3206 14.5569 13.0587 14.5471 12.632 14.3395C12.267 14.162 12.0568 13.7314 12.0565 13.2558C12.0551 11.451 11.4905 9.14279 9.70839 7.47433C8.22767 6.08807 5.95749 5.18994 2.60364 5.34311C3.64147 5.02051 4.72191 4.78785 5.81686 4.76575ZM14.1375 12.0368C14.1372 12.0365 14.1352 12.0372 14.1324 12.0397C14.1363 12.0383 14.1377 12.037 14.1375 12.0368Z"/>
        </g>
        <!-- viewBox="0 0 40 14" -->
        <g id="brows4">
          <path fill-rule="evenodd" clip-rule="evenodd" d="M35.1838 7.34791C36.1278 9.06405 36.4869 11.0345 36.7325 12.779L36.1883 12.8609C34.5632 8.5632 32.3623 6.67368 30.2609 6.03454C28.1437 5.39059 26.0301 5.98473 24.5384 6.84342C24.0294 7.13636 23.2896 7.26095 22.6816 6.84951C22.2213 6.53798 21.9437 6.20143 21.8696 5.84384C21.7948 5.48226 21.9423 5.17021 22.1658 4.92745C22.5235 4.53904 23.1344 4.25849 23.6977 4.11628C23.6547 3.99462 23.6513 3.86862 23.7123 3.746C23.8172 3.53503 24.0688 3.44668 24.2669 3.40305C24.5913 3.33158 25.0201 3.32947 25.3889 3.35275C25.4034 3.2756 25.4361 3.19892 25.4924 3.12686C25.6347 2.94467 25.8914 2.8407 26.2291 2.79837C26.9045 2.7137 28.0947 2.8516 30.0993 3.41781C32.6864 4.14857 34.2316 5.6169 35.1838 7.34791ZM34.6864 7.55579C33.8027 5.94921 32.3856 4.59878 29.9763 3.91825C27.9837 3.35544 26.8962 3.24909 26.3482 3.31779C26.0742 3.35214 25.9827 3.42425 25.9574 3.45665C25.942 3.47643 25.9347 3.50103 25.9586 3.55117L26.15 3.95181L25.6919 3.90108C25.2935 3.85697 24.7678 3.84088 24.4379 3.91352C24.2987 3.94418 24.2477 3.97927 24.2325 3.99201C24.2383 4.01175 24.2603 4.05716 24.3364 4.13913L24.6622 4.48978L24.1962 4.55975C23.6238 4.64572 22.9388 4.9251 22.6061 5.28638C22.4448 5.46165 22.3901 5.62838 22.4226 5.78546C22.456 5.94653 22.5953 6.1685 22.9883 6.43445C23.3244 6.66189 23.8024 6.6289 24.2146 6.39163C25.7788 5.49131 28.0604 4.82728 30.396 5.53766C32.3366 6.12789 34.2487 7.64586 35.7914 10.6278C35.5524 9.56757 35.2142 8.51537 34.6864 7.55579ZM24.2311 3.97992C24.2315 3.98002 24.2318 3.98209 24.2311 3.9858C24.2304 3.98167 24.2307 3.97982 24.2311 3.97992Z"/>
          <path fill-rule="evenodd" clip-rule="evenodd" d="M4.82743 7.34791C3.88343 9.06405 3.5243 11.0345 3.2787 12.779L3.82296 12.8609C5.44806 8.5632 7.64892 6.67368 9.75035 6.03454C11.8675 5.39059 13.9811 5.98473 15.4729 6.84342C15.9818 7.13636 16.7216 7.26095 17.3296 6.84951C17.7899 6.53798 18.0675 6.20143 18.1416 5.84384C18.2164 5.48226 18.0689 5.17021 17.8454 4.92745C17.4878 4.53904 16.8768 4.25849 16.3135 4.11628C16.3565 3.99462 16.36 3.86862 16.299 3.746C16.1941 3.53503 15.9425 3.44668 15.7444 3.40305C15.4199 3.33158 14.9911 3.32947 14.6223 3.35275C14.6078 3.2756 14.5751 3.19892 14.5188 3.12686C14.3765 2.94467 14.1198 2.8407 13.7822 2.79837C13.1068 2.7137 11.9165 2.8516 9.91197 3.41781C7.32484 4.14857 5.7796 5.6169 4.82743 7.34791ZM5.32483 7.55579C6.20857 5.94921 7.62563 4.59878 10.0349 3.91825C12.0275 3.35544 13.1151 3.24909 13.663 3.31779C13.9371 3.35214 14.0285 3.42425 14.0538 3.45665C14.0692 3.47643 14.0766 3.50103 14.0526 3.55117L13.8612 3.95181L14.3194 3.90108C14.7177 3.85697 15.2435 3.84088 15.5733 3.91352C15.7125 3.94418 15.7635 3.97927 15.7787 3.99201C15.7729 4.01175 15.751 4.05716 15.6748 4.13913L15.3491 4.48978L15.815 4.55975C16.3875 4.64572 17.0724 4.9251 17.4051 5.28638C17.5665 5.46165 17.6211 5.62838 17.5886 5.78546C17.5552 5.94653 17.4159 6.1685 17.0229 6.43445C16.6868 6.66189 16.2088 6.6289 15.7966 6.39163C14.2325 5.49131 11.9509 4.82728 9.61523 5.53766C7.67465 6.12789 5.76256 7.64586 4.21985 10.6278C4.45882 9.56757 4.797 8.51537 5.32483 7.55579ZM15.7801 3.97992C15.7798 3.98002 15.7794 3.98209 15.7802 3.9858C15.7809 3.98167 15.7805 3.97982 15.7801 3.97992Z"/>
        </g>
        <!-- viewBox="0 0 15 15" -->
        <g id="gravatar">
          <path fill-rule="evenodd" clip-rule="evenodd" d="M10.4515 0.87694C11.8036 1.39363 13.3703 2.44044 14.3858 4.41736L14.3922 4.43027C14.8803 5.45191 15.0612 6.99188 14.7971 8.52986C14.5321 10.073 13.8072 11.6832 12.4043 12.8073C11.7324 13.4123 10.344 14.1946 8.65507 14.3969C6.9296 14.6037 4.89216 14.2033 3.0088 12.4169C3.00384 12.4122 2.99898 12.4074 2.99422 12.4025C1.55351 10.919 0.825447 9.19032 0.834557 7.42597C0.843654 5.66424 1.58725 3.92151 2.98872 2.40332C3.17603 2.20042 3.49236 2.18777 3.69527 2.37508C3.89817 2.56239 3.91082 2.87872 3.72351 3.08162C2.46188 4.44832 1.84214 5.95931 1.83454 7.43113C1.82697 8.8976 2.4266 10.3795 3.70443 11.6984C5.34944 13.2548 7.07939 13.5786 8.53612 13.404C10.0212 13.2261 11.2246 12.5284 11.7439 12.0563C11.7519 12.049 11.7602 12.0419 11.7686 12.0352C12.9398 11.1019 13.5756 9.73477 13.8115 8.36063C14.0485 6.98047 13.8702 5.66247 13.4929 4.86774C12.612 3.15728 11.2643 2.25809 10.0946 1.81105C9.50704 1.58653 8.96941 1.47832 8.56843 1.43974C8.45766 1.42908 8.35975 1.42397 8.27612 1.42285C8.27212 2.05444 8.28624 3.14295 8.30394 4.18006C8.31514 4.83642 8.32759 5.46457 8.33726 5.92869C8.34209 6.16073 8.34622 6.35171 8.34914 6.48467L8.35375 6.69154L7.8539 6.70383L7.35403 6.7152L7.34938 6.50664C7.34645 6.37335 7.34231 6.18197 7.33747 5.9495C7.32779 5.48459 7.31531 4.85512 7.30408 4.19712C7.28182 2.89208 7.26383 1.44379 7.28488 0.970284C7.29153 0.820576 7.36498 0.681746 7.485 0.592019C7.59049 0.513158 7.70791 0.481084 7.77324 0.465951C7.85302 0.447473 7.93994 0.436269 8.02774 0.429861C8.2045 0.416961 8.42123 0.420958 8.66421 0.444338C9.15167 0.491241 9.77739 0.619315 10.4515 0.87694ZM7.8539 6.70383L7.35403 6.7152C7.36034 6.99127 7.58926 7.21001 7.86533 7.2037C8.1414 7.19738 8.36006 6.96761 8.35375 6.69154L7.8539 6.70383Z"/>
        </g>
        <!-- viewBox="0 0 45 39" -->
        <g id="reddit">
          <path d="M16.1958 26.1037C14.1792 26.1037 12.5381 24.464 12.5381 22.4475C12.5381 20.4323 14.1792 18.7926 16.1958 18.7926C18.2109 18.7926 19.8506 20.4323 19.8506 22.4475C19.852 24.464 18.2123 26.1037 16.1958 26.1037ZM42.653 23.5556C42.7078 23.9733 42.7359 24.3853 42.7359 24.7861C42.7359 32.3882 33.6403 38.5729 22.462 38.5729C11.2837 38.5729 2.18812 32.3882 2.18812 24.7861C2.18812 24.3712 2.21906 23.9409 2.27953 23.5036C0.845156 22.4461 0 20.7895 0 19.0064C0 15.9154 2.51437 13.4011 5.60531 13.4011C6.81187 13.4011 7.98328 13.7934 8.94797 14.512C12.4228 12.3984 16.8553 11.1665 21.5128 11.0203L25.0847 0.871377L33.6431 2.91747C34.4503 1.39028 36.0253 0.427002 37.7761 0.427002C40.3566 0.427002 42.4547 2.52653 42.4547 5.1056C42.4547 7.68606 40.3552 9.78419 37.7761 9.78419C35.3503 9.78419 33.345 7.92231 33.1186 5.55278L26.813 4.04528L24.345 11.0597C28.672 11.3325 32.7769 12.5545 36.0183 14.5359C36.9886 13.8004 38.1727 13.3997 39.3947 13.3997C42.4856 13.3997 45 15.914 45 19.005C45 20.8261 44.1295 22.5009 42.653 23.5556ZM2.68594 19.0064C2.68594 19.5675 2.85188 20.1131 3.15281 20.58C3.89109 19.0148 5.04844 17.5383 6.55172 16.2431C6.24937 16.139 5.93156 16.0856 5.60531 16.0856C3.99516 16.0856 2.68594 17.3962 2.68594 19.0064ZM40.05 24.7861C40.05 18.6647 32.1595 13.6837 22.462 13.6837C12.7645 13.6837 4.87406 18.6647 4.87406 24.7861C4.87406 30.9075 12.7645 35.887 22.462 35.887C32.1609 35.887 40.05 30.9075 40.05 24.7861ZM38.3948 16.2628C39.908 17.572 41.0681 19.064 41.8022 20.6475C42.1327 20.1665 42.3141 19.597 42.3141 19.0064C42.3141 17.3962 41.0048 16.0856 39.3947 16.0856C39.0502 16.0856 38.7127 16.1461 38.3948 16.2628ZM35.782 5.1056C35.782 6.20388 36.6764 7.09825 37.7747 7.09825C38.8744 7.09825 39.7673 6.20388 39.7673 5.1056C39.7673 4.00591 38.873 3.11294 37.7747 3.11294C36.6764 3.11153 35.782 4.00591 35.782 5.1056ZM29.212 28.964C28.8478 28.964 28.5075 29.1075 28.2628 29.3564C28.1897 29.4267 26.4347 31.0818 22.4269 31.0818C18.4683 31.0818 16.8722 29.4281 16.868 29.4225C16.6134 29.13 16.2436 28.9612 15.8555 28.9612C15.5362 28.9612 15.2269 29.0751 14.9836 29.2833C14.7108 29.5167 14.5448 29.8415 14.5167 30.2001C14.4886 30.5587 14.6025 30.9061 14.8359 31.1775C14.8978 31.2506 15.4842 31.9129 16.7231 32.5457C18.3122 33.3572 20.2317 33.7678 22.4283 33.7678C24.6108 33.7678 26.5528 33.3642 28.2038 32.5668C29.482 31.9495 30.1191 31.3054 30.188 31.2323C30.6928 30.7036 30.6773 29.857 30.1514 29.3437C29.8969 29.099 29.565 28.964 29.212 28.964ZM29.1698 18.7926C27.1533 18.7926 25.5122 20.4323 25.5122 22.4475C25.5122 24.464 27.1533 26.1037 29.1698 26.1037C31.185 26.1037 32.8247 24.464 32.8247 22.4475C32.8261 20.4323 31.1864 18.7926 29.1698 18.7926Z"/>
        </g>
        <!-- viewBox="0 0 31 31" -->
        <g id="whatsapp">
          <path fill-rule="evenodd" clip-rule="evenodd" d="M15.4955 0C6.95063 0 0 6.95257 0 15.4999C0 18.8896 1.09316 22.0333 2.95146 24.5849L1.02015 30.3437L6.97787 28.4396C9.42826 30.0616 12.3525 31 15.5045 31C24.0494 31 31 24.0472 31 15.5001C31 6.95285 24.0494 0.00025622 15.5045 0.00025622H15.4955V0ZM11.1683 7.87324C10.8678 7.15342 10.64 7.12617 10.1846 7.10765C10.0296 7.09865 9.85684 7.08966 9.66531 7.08966C9.07296 7.08966 8.45361 7.26273 8.08005 7.6454C7.62473 8.11011 6.49503 9.19433 6.49503 11.4178C6.49503 13.6413 8.11656 15.7917 8.33509 16.0926C8.56288 16.393 11.4963 21.0221 16.0511 22.9087C19.6129 24.3848 20.6698 24.248 21.4805 24.0749C22.6647 23.8198 24.1497 22.9447 24.5232 21.888C24.8968 20.8307 24.8968 19.9286 24.7872 19.7373C24.678 19.5459 24.3772 19.4369 23.9218 19.2088C23.4665 18.9809 21.2527 17.8874 20.8336 17.7416C20.4235 17.5868 20.032 17.6416 19.7224 18.079C19.2851 18.6895 18.8571 19.3093 18.5107 19.6827C18.2375 19.9744 17.7909 20.0109 17.4176 19.8558C16.9165 19.6465 15.5138 19.154 13.7827 17.6141C12.4435 16.4205 11.5326 14.9354 11.2686 14.4889C11.0043 14.0335 11.2413 13.7689 11.4506 13.523C11.6784 13.2404 11.8969 13.04 12.1247 12.7757C12.3525 12.5116 12.48 12.3747 12.6258 12.0649C12.7808 11.7642 12.6713 11.4543 12.562 11.2265C12.4528 10.9986 11.5419 8.77514 11.1683 7.87324Z"/>
        </g>
        <!-- viewBox="0 0 24 22" -->
        <g id="telegram">
          <path d="M22.0517 1.12925L0.78878 9.37112C-0.0668675 9.75491 -0.356277 10.5236 0.581933 10.9407L6.03682 12.6832L19.2259 4.4899C19.946 3.97552 20.6833 4.11269 20.0489 4.6785L8.72124 14.9879L8.3654 19.3509C8.69499 20.0246 9.29847 20.0277 9.68339 19.6929L12.8174 16.7121L18.1848 20.7521C19.4314 21.494 20.1097 21.0152 20.3779 19.6555L23.8985 2.89915C24.264 1.22544 23.6407 0.488003 22.0517 1.12925Z"/>
        </g>
        <!-- viewBox="0 0 15 16" -->
        <g id="close">
          <path fill-rule="evenodd" clip-rule="evenodd" d="M7.57426 8.3612L0.92781 15.0076L0.220703 14.3005L6.86715 7.65409L0.220703 1.00764L0.92781 0.300537L7.57426 6.94698L14.2207 0.300537L14.9278 1.00764L8.28136 7.65409L14.9278 14.3005L14.2207 15.0076L7.57426 8.3612Z"/>
        </g>
        <!-- viewBox="0 0 18 16" -->
        <g id="styles">
          <path fill-rule="evenodd" clip-rule="evenodd" d="M8.99459 0.718871C8.94237 0.717167 8.89039 0.716309 8.83869 0.716309V0.72621C7.54343 0.806674 6.17642 1.37363 5.10402 2.28624C3.989 3.23511 3.16723 4.58066 3.10019 6.17944L3.09996 6.18615L3.47486 6.19515C3.09996 6.18615 3.09997 6.1861 3.09996 6.18615L3.09993 6.18775L3.09986 6.19116L3.09964 6.20323L3.09912 6.24733C3.09882 6.28517 3.09872 6.33945 3.09948 6.4068C3.10102 6.54131 3.10602 6.72905 3.11994 6.94299C3.13586 7.18772 3.16404 7.47754 3.21527 7.76548L1.27882 6.3702C1.11079 6.24913 0.876423 6.28719 0.75535 6.45522C0.634277 6.62326 0.672345 6.85762 0.840376 6.97869L3.57861 8.95169C3.74664 9.07276 3.981 9.0347 4.10208 8.86667L6.07507 6.12843C6.19615 5.9604 6.15808 5.72604 5.99005 5.60496C5.82202 5.48389 5.58765 5.52196 5.46658 5.68999L3.9772 7.75702C3.9195 7.47802 3.88633 7.17047 3.86836 6.8943C3.8555 6.69658 3.85085 6.52257 3.84944 6.39825C3.84873 6.33619 3.84883 6.28678 3.84909 6.25329L3.84954 6.21548L3.84969 6.20703C3.90736 4.86086 4.59976 3.70017 5.59009 2.85741C6.58071 2.0144 7.84426 1.51241 8.99427 1.46933C10.7488 1.53676 12.9549 2.71997 13.8031 4.72775C13.8837 4.91853 14.1037 5.00786 14.2945 4.92726C14.4853 4.84666 14.5746 4.62667 14.494 4.43589C13.536 2.16816 11.1277 0.854853 9.15453 0.726692V0.716309C9.10135 0.716309 9.04803 0.717167 8.99459 0.718871ZM14.297 5.71874C14.4528 5.58225 14.6897 5.59788 14.8262 5.75365L17.0504 8.29205C17.1869 8.44782 17.1713 8.68474 17.0155 8.82123C16.8598 8.95772 16.6228 8.94209 16.4864 8.78632L14.8758 6.94831C14.763 8.46132 14.1961 10.4246 13.3339 12.1183C12.8229 13.1222 12.1972 14.0537 11.4792 14.7511C10.803 15.4078 10.0206 15.8797 9.1572 15.9749L9.15739 15.9925C9.09799 15.9932 9.03891 15.992 8.98018 15.989C8.93274 15.9914 8.88514 15.9925 8.83738 15.9925V15.9783C7.40104 15.8343 6.24126 14.6415 5.42412 13.4314C4.56947 12.1657 4.00299 10.7531 3.81427 10.0613C3.75977 9.86145 3.87756 9.65529 4.07736 9.60079C4.27717 9.54628 4.48333 9.66407 4.53783 9.86388C4.70578 10.4796 5.2387 11.8166 6.04568 13.0117C6.86199 14.2206 7.87587 15.1622 8.98071 15.2378C9.65414 15.1928 10.3213 14.8302 10.9566 14.2131C11.5972 13.5909 12.1783 12.7353 12.6655 11.7781C13.5042 10.1306 14.0327 8.24786 14.1302 6.8621L12.2529 8.50705C12.0971 8.64354 11.8602 8.62791 11.7237 8.47214C11.5872 8.31637 11.6029 8.07945 11.7586 7.94296L14.297 5.71874Z"/>
        </g>
    </defs>
</svg>