<svg xmlns="http://www.w3.org/2000/svg" xmlns:xlink="http://www.w3.org/1999/xlink" version="1.1" style="display: none;">
  <defs>
    <!-- viewBox="0 0 201 136" -->
    <g id="logo-base">
      <path d="M104.882 69.9458C102.457 34.6883 92.7585 17.0596 83.6663 17.0596C79.1201 39.0955 71.5432 55.2552 63.9663 68.4767C85.1816 80.2292 94.2739 71.4148 104.882 69.9458Z" fill="#ED6665"/>
      <path d="M88.3579 6.83082C88.3579 9.87271 85.892 12.3387 82.8501 12.3387C79.8082 12.3387 77.3423 9.87271 77.3423 6.83082C77.3423 3.78894 79.8082 1.323 82.8501 1.323C85.892 1.323 88.3579 3.78894 88.3579 6.83082Z" fill="#181818"/>
      <path d="M74.1948 15.1818C60.4484 9.01594 45.0934 18.2456 39.5742 22.8414C42.5847 38.1606 44.09 59.0957 54.6267 71.3511C63.6581 63.6915 71.1844 35.0968 74.1948 15.1818Z" fill="#5891F1"/>
      <path d="M58.4585 6.04396C58.4585 9.08585 55.9926 11.5518 52.9507 11.5518C49.9088 11.5518 47.4429 9.08585 47.4429 6.04396C47.4429 3.00207 49.9088 0.536133 52.9507 0.536133C55.9926 0.536133 58.4585 3.00207 58.4585 6.04396Z" fill="#181818"/>
      <path d="M36.4013 67.7315C35.7299 68.1092 35.0374 68.4239 34.324 68.6757C33.6106 68.9275 32.6874 69.1373 31.5544 69.3052C30.9249 64.9828 30.2955 61.1851 29.666 57.9118C29.0365 54.6386 28.3861 51.6382 27.7146 48.9105C24.7352 48.8685 21.8187 48.9524 18.9651 49.1623C16.1115 49.3301 13.4468 49.6029 10.9709 49.9806C10.0896 52.1627 9.10344 54.4078 8.01237 56.7159C6.96326 59.0239 5.78825 61.4578 4.48736 64.0177C3.69003 63.8498 2.93468 63.577 2.22128 63.1994C1.50789 62.8636 0.815473 62.3811 0.144043 61.7516C3.87887 55.1632 6.92129 48.7216 9.2713 42.427C11.6633 36.0904 13.9713 28.0542 16.1954 18.3184C17.3285 18.3604 18.2727 18.4233 19.028 18.5073C19.7834 18.5912 20.5178 18.7171 21.2311 18.885C25.3437 26.8582 28.512 34.4747 30.7361 41.7346C33.0022 48.9944 34.8906 57.6601 36.4013 67.7315ZM18.8392 24.2354C17.832 28.6417 16.8039 32.6283 15.7548 36.1953C14.7477 39.7203 13.6356 43.0774 12.4186 46.2667C14.4329 45.973 16.636 45.7422 19.028 45.5743C21.42 45.3645 24.0008 45.2176 26.7704 45.1337C25.7213 41.4408 24.5673 37.9158 23.3084 34.5587C22.0495 31.2015 20.5597 27.7604 18.8392 24.2354Z" fill="#181818"/>
      <path d="M68.6875 15.6747C67.5964 25.6202 65.9808 34.3908 63.8406 41.9864C61.7004 49.5399 58.3013 58.2685 53.6432 68.1721C53.0557 68.34 52.4473 68.4659 51.8178 68.5498C51.1883 68.6337 50.4749 68.6757 49.6776 68.6757C46.6562 61.6677 44.1173 54.4917 42.0611 47.148C40.0048 39.7622 38.4102 32.1037 37.2771 24.1725C38.1164 23.7948 38.9347 23.501 39.732 23.2912C40.5294 23.0394 41.3896 22.8716 42.3128 22.7876C43.1521 29.7537 44.3901 36.5939 46.0267 43.3082C47.7053 50.0225 49.7825 56.527 52.2584 62.8217C55.6995 54.5127 58.3013 46.7703 60.0638 39.5944C61.8263 32.3765 63.1272 24.1095 63.9665 14.7934C64.8058 14.7934 65.5821 14.8774 66.2955 15.0452C67.0509 15.1711 67.8482 15.3809 68.6875 15.6747Z" fill="#181818"/>
      <path d="M102.421 67.7315C101.75 68.1092 101.058 68.4239 100.344 68.6757C99.6308 68.9275 98.7076 69.1373 97.5745 69.3052C96.9451 64.9828 96.3156 61.1851 95.6861 57.9118C95.0567 54.6386 94.4062 51.6382 93.7348 48.9105C90.7553 48.8685 87.8388 48.9524 84.9852 49.1623C82.1316 49.3301 79.4669 49.6029 76.991 49.9806C76.1098 52.1627 75.1236 54.4078 74.0325 56.7159C72.9834 59.0239 71.8084 61.4578 70.5075 64.0177C69.7102 63.8498 68.9548 63.577 68.2414 63.1994C67.528 62.8636 66.8356 62.3811 66.1642 61.7516C69.899 55.1632 72.9414 48.7216 75.2915 42.427C77.6834 36.0904 79.9915 28.0542 82.2156 18.3184C83.3486 18.3604 84.2928 18.4233 85.0482 18.5073C85.8035 18.5912 86.5379 18.7171 87.2513 18.885C91.3638 26.8582 94.5321 34.4747 96.7562 41.7346C99.0223 48.9944 100.911 57.6601 102.421 67.7315ZM84.8593 24.2354C83.8522 28.6417 82.8241 32.6283 81.7749 36.1953C80.7678 39.7203 79.6557 43.0774 78.4388 46.2667C80.4531 45.973 82.6562 45.7422 85.0482 45.5743C87.4401 45.3645 90.021 45.2176 92.7906 45.1337C91.7415 41.4408 90.5875 37.9158 89.3285 34.5587C88.0696 31.2015 86.5799 27.7604 84.8593 24.2354Z" fill="#181818"/>
      <path d="M118.921 60.5556C118.375 60.7235 117.683 60.8703 116.844 60.9962C116.004 61.0801 115.144 61.1431 114.263 61.1851C114.473 54.4288 114.389 47.2109 114.011 39.5314C113.633 31.852 112.983 24.76 112.06 18.2555C109.919 18.4653 107.695 18.7381 105.387 19.0738C103.121 19.3675 100.666 19.7033 98.0225 20.0809C97.8547 19.3675 97.7288 18.6541 97.6449 17.9408C97.5609 17.2274 97.54 16.5769 97.5819 15.9894C103.877 14.9403 109.458 14.1849 114.326 13.7233C119.236 13.2617 124.817 12.989 131.069 12.905C131.195 13.1988 131.279 13.5345 131.321 13.9122C131.405 14.2899 131.468 14.7095 131.51 15.1711C131.51 15.339 131.51 15.5278 131.51 15.7376C131.51 15.9474 131.468 16.451 131.384 17.2483C128.866 17.2903 126.495 17.3533 124.271 17.4372C122.047 17.5211 119.844 17.647 117.662 17.8149C118.207 23.2702 118.606 28.4109 118.858 33.2368C119.11 38.0207 119.236 43.0145 119.236 48.2181C119.236 50.0225 119.215 51.9319 119.173 53.9462C119.131 55.9605 119.047 58.1636 118.921 60.5556Z" fill="#181818"/>
      <path d="M164.753 67.7315C164.082 68.1092 163.389 68.4239 162.676 68.6757C161.963 68.9275 161.039 69.1373 159.906 69.3052C159.277 64.9828 158.647 61.1851 158.018 57.9118C157.389 54.6386 156.738 51.6382 156.067 48.9105C153.087 48.8685 150.171 48.9524 147.317 49.1623C144.464 49.3301 141.799 49.6029 139.323 49.9806C138.442 52.1627 137.455 54.4078 136.364 56.7159C135.315 59.0239 134.14 61.4578 132.839 64.0177C132.042 63.8498 131.287 63.577 130.573 63.1994C129.86 62.8636 129.167 62.3811 128.496 61.7516C132.231 55.1632 135.273 48.7216 137.623 42.427C140.015 36.0904 142.323 28.0542 144.547 18.3184C145.68 18.3604 146.625 18.4233 147.38 18.5073C148.135 18.5912 148.87 18.7171 149.583 18.885C153.696 26.8582 156.864 34.4747 159.088 41.7346C161.354 48.9944 163.243 57.6601 164.753 67.7315ZM147.191 24.2354C146.184 28.6417 145.156 32.6283 144.107 36.1953C143.1 39.7203 141.988 43.0774 140.771 46.2667C142.785 45.973 144.988 45.7422 147.38 45.5743C149.772 45.3645 152.353 45.2176 155.122 45.1337C154.073 41.4408 152.919 37.9158 151.66 34.5587C150.401 31.2015 148.912 27.7604 147.191 24.2354Z" fill="#181818"/>
      <path d="M200.144 62.3181C199.724 62.6958 199.074 63.0944 198.193 63.5141C197.311 63.9757 196.493 64.2904 195.738 64.4583C193.346 59.0868 191.269 54.8275 189.506 51.6801C187.786 48.5328 185.876 45.5323 183.778 42.6788C182.771 43.1404 181.638 43.581 180.379 44.0006C179.162 44.3783 177.84 44.756 176.413 45.1337C176.287 48.4908 176.14 51.6382 175.973 54.5757C175.805 57.5132 175.595 60.3248 175.343 63.0105C174.714 63.0944 173.979 63.0944 173.14 63.0105C172.343 62.9685 171.692 62.8846 171.189 62.7587C171.398 59.4435 171.524 56.7788 171.566 54.7645C171.65 52.7083 171.692 50.5681 171.692 48.344C171.692 41.5877 171.587 36.2372 171.377 32.2926C171.168 28.3479 170.769 23.7318 170.181 18.4443C172.028 17.1434 174.126 16.1153 176.476 15.3599C178.868 14.6046 181.218 14.2269 183.526 14.2269C187.681 14.2269 190.954 15.318 193.346 17.5001C195.78 19.6823 196.997 22.5988 196.997 26.2497C196.997 29.3551 196.22 32.1247 194.668 34.5587C193.115 36.9506 190.765 39.0488 187.618 40.8533C189.632 43.2453 191.688 46.2457 193.786 49.8547C195.885 53.4216 198.004 57.5761 200.144 62.3181ZM175.658 19.6403C175.952 23.3751 176.161 26.6484 176.287 29.46C176.413 32.2716 176.476 35.0832 176.476 37.8948C176.476 38.5243 176.476 39.1538 176.476 39.7832C176.476 40.3707 176.476 40.9792 176.476 41.6087C181.722 40.3078 185.603 38.4823 188.121 36.1323C190.639 33.7823 191.898 30.7819 191.898 27.131C191.898 24.1515 191.122 21.8644 189.569 20.2698C188.058 18.6332 185.876 17.8149 183.023 17.8149C181.764 17.8149 180.505 17.9827 179.246 18.3184C178.029 18.6122 176.833 19.0528 175.658 19.6403Z" fill="#181818"/>
      <path d="M47.8723 131.496C47.117 131.79 46.3406 132 45.5433 132.126C44.746 132.252 43.8647 132.315 42.8995 132.315C43.3192 125.516 43.5919 118.739 43.7178 111.983C43.8857 105.227 43.9277 97.5472 43.8437 88.9445C41.2419 93.2249 38.9339 97.6731 36.9196 102.289C34.9053 106.905 33.0379 111.983 31.3174 117.522C30.8557 117.69 30.3312 117.816 29.7437 117.9C29.1562 117.942 28.5687 117.921 27.9812 117.837C26.3026 112.424 24.4352 107.451 22.3789 102.919C20.3647 98.3865 18.0146 93.9802 15.3289 89.6999C15.287 90.5392 15.245 91.3994 15.203 92.2807C15.203 93.1619 15.203 94.6936 15.203 96.8758C15.203 101.576 15.4548 106.612 15.9584 111.983C16.462 117.312 17.2173 122.81 18.2245 128.475C17.595 128.643 16.8396 128.769 15.9584 128.853C15.1191 128.979 14.3428 129.041 13.6294 129.041C12.5383 122.411 11.741 114.92 11.2374 106.57C10.7758 98.2186 10.6709 90.4133 10.9227 83.1534C11.8459 82.6499 12.7061 82.2512 13.5035 81.9574C14.3428 81.6217 15.1191 81.3909 15.8325 81.265C18.812 85.5454 21.4977 90.2034 23.8897 95.2392C26.3236 100.233 28.3169 105.29 29.8696 110.409C31.3803 105.667 33.2267 100.925 35.4089 96.1834C37.633 91.4414 40.2977 86.4686 43.4031 81.265C44.2844 81.3909 45.1027 81.5798 45.858 81.8315C46.6134 82.0833 47.3058 82.3561 47.9353 82.6498C48.229 88.4409 48.3549 95.5119 48.3129 103.863C48.3129 112.172 48.1661 121.383 47.8723 131.496Z" fill="#181818"/>
      <path d="M90.2501 133.825C89.5787 134.203 88.8863 134.518 88.1729 134.77C87.4595 135.021 86.5363 135.231 85.4032 135.399C84.7738 131.077 84.1443 127.279 83.5148 124.006C82.8854 120.733 82.2349 117.732 81.5635 115.004C78.584 114.962 75.6675 115.046 72.8139 115.256C69.9603 115.424 67.2956 115.697 64.8197 116.074C63.9384 118.257 62.9523 120.502 61.8612 122.81C60.8121 125.118 59.6371 127.552 58.3362 130.112C57.5389 129.944 56.7835 129.671 56.0701 129.293C55.3567 128.958 54.6643 128.475 53.9929 127.846C57.7277 121.257 60.7701 114.816 63.1201 108.521C65.5121 102.184 67.8201 94.1481 70.0443 84.4123C71.1773 84.4543 72.1215 84.5173 72.8769 84.6012C73.6322 84.6851 74.3666 84.811 75.08 84.9789C79.1925 92.9521 82.3608 100.569 84.5849 107.828C86.851 115.088 88.7394 123.754 90.2501 133.825ZM72.688 90.3293C71.6809 94.7356 70.6527 98.7222 69.6036 102.289C68.5965 105.814 67.4844 109.171 66.2675 112.361C68.2818 112.067 70.4849 111.836 72.8769 111.668C75.2688 111.458 77.8496 111.312 80.6193 111.228C79.5702 107.535 78.4162 104.01 77.1572 100.653C75.8983 97.2954 74.4086 93.8543 72.688 90.3293Z" fill="#181818"/>
      <path d="M126.333 130.741C125.788 131.538 125.2 132.189 124.571 132.692C123.941 133.238 123.228 133.7 122.431 134.077C119.493 129 116.765 124.845 114.248 121.614C111.73 118.341 108.624 114.92 104.931 111.353C103.589 112.445 102.665 113.2 102.162 113.62C101.658 113.997 101.176 114.354 100.714 114.69C100.798 117.837 100.945 120.775 101.155 123.502C101.406 126.23 101.742 129.293 102.162 132.692C101.532 132.818 100.798 132.923 99.9586 133.007C99.1194 133.133 98.406 133.196 97.8185 133.196C97.0211 127.279 96.4546 121.97 96.1189 117.27C95.8252 112.529 95.6783 107.136 95.6783 101.093C95.6783 98.7012 95.7202 96.1834 95.8042 93.5396C95.9301 90.8539 96.0979 88.0213 96.3077 85.0418C97.147 84.832 97.7975 84.6851 98.2591 84.6012C98.7627 84.5173 99.2243 84.4753 99.6439 84.4753C100.064 84.4753 100.483 84.5173 100.903 84.6012C101.322 84.6432 101.763 84.7271 102.225 84.853C101.679 88.336 101.281 91.882 101.029 95.491C100.777 99.0579 100.651 103.212 100.651 107.954C100.651 108.416 100.651 108.899 100.651 109.402C100.651 109.864 100.651 110.325 100.651 110.787C104.848 107.052 108.163 103.527 110.597 100.212C113.073 96.8548 115.8 92.0079 118.78 85.6713C119.451 85.965 120.102 86.3637 120.731 86.8673C121.402 87.3708 122.053 88.0003 122.682 88.7557C120.248 93.2459 117.919 97.0017 115.695 100.023C113.471 103.003 110.932 105.856 108.079 108.584C111.73 111.857 114.772 114.983 117.206 117.963C119.64 120.942 122.682 125.202 126.333 130.741Z" fill="#181818"/>
      <path d="M156.285 129.608C152.97 130.112 149.487 130.489 145.836 130.741C142.227 131.035 138.282 131.245 134.002 131.371C132.785 123.313 131.778 115.13 130.98 106.821C130.225 98.4704 129.805 91.2945 129.722 85.2936C135.555 84.2865 140.234 83.594 143.759 83.2164C147.284 82.8387 150.977 82.6079 154.837 82.524C154.837 83.2793 154.795 84.0137 154.711 84.7271C154.669 85.3985 154.585 86.028 154.46 86.6155C151.018 86.6574 147.703 86.8253 144.514 87.1191C141.367 87.3708 138.261 87.7485 135.198 88.2521C135.114 90.77 135.114 93.3718 135.198 96.0575C135.282 98.7432 135.429 101.639 135.639 104.744C139.667 104.031 142.772 103.527 144.955 103.233C147.179 102.898 149.382 102.646 151.564 102.478C151.732 103.066 151.837 103.674 151.879 104.303C151.963 104.933 151.984 105.625 151.942 106.381C148.752 106.633 145.983 106.905 143.633 107.199C141.325 107.451 138.744 107.808 135.89 108.269C136.184 111.71 136.499 115.046 136.835 118.278C137.212 121.509 137.632 124.593 138.093 127.531C141.576 127.447 144.745 127.237 147.598 126.901C150.494 126.566 153.285 126.104 155.97 125.516C156.138 126.104 156.243 126.796 156.285 127.594C156.369 128.391 156.369 129.062 156.285 129.608Z" fill="#181818"/>
      <path d="M192.89 128.412C192.471 128.79 191.82 129.188 190.939 129.608C190.058 130.07 189.24 130.384 188.484 130.552C186.092 125.181 184.015 120.921 182.252 117.774C180.532 114.627 178.623 111.626 176.524 108.773C175.517 109.234 174.384 109.675 173.125 110.095C171.908 110.472 170.586 110.85 169.16 111.228C169.034 114.585 168.887 117.732 168.719 120.67C168.551 123.607 168.341 126.419 168.089 129.104C167.46 129.188 166.726 129.188 165.886 129.104C165.089 129.062 164.439 128.979 163.935 128.853C164.145 125.537 164.271 122.873 164.313 120.858C164.397 118.802 164.439 116.662 164.439 114.438C164.439 107.682 164.334 102.331 164.124 98.3865C163.914 94.4418 163.515 89.8258 162.928 84.5382C164.774 83.2373 166.872 82.2092 169.223 81.4539C171.614 80.6985 173.964 80.3208 176.273 80.3208C180.427 80.3208 183.7 81.4119 186.092 83.594C188.526 85.7762 189.743 88.6927 189.743 92.3436C189.743 95.449 188.967 98.2186 187.414 100.653C185.861 103.045 183.511 105.143 180.364 106.947C182.378 109.339 184.435 112.34 186.533 115.949C188.631 119.516 190.75 123.67 192.89 128.412ZM168.404 85.7342C168.698 89.4691 168.908 92.7423 169.034 95.5539C169.16 98.3655 169.223 101.177 169.223 103.989C169.223 104.618 169.223 105.248 169.223 105.877C169.223 106.465 169.223 107.073 169.223 107.703C174.468 106.402 178.35 104.576 180.868 102.226C183.385 99.8762 184.644 96.8758 184.644 93.2249C184.644 90.2454 183.868 87.9583 182.315 86.3637C180.805 84.7271 178.623 83.9088 175.769 83.9088C174.51 83.9088 173.251 84.0766 171.992 84.4123C170.775 84.7061 169.579 85.1467 168.404 85.7342Z" fill="#181818"/>
    </g>
    <!-- viewBox="0 0 254 72" -->
    <g id="logo-free">
      <path d="M57.375 38.92C57.535 47.2933 57.615 53.64 57.615 57.96C57.6683 62.2267 57.6417 66.4933 57.535 70.76C56.6817 70.9733 55.7217 71.1067 54.655 71.16C53.6417 71.2667 52.655 71.2933 51.695 71.24C51.9083 58.8667 51.695 47.4267 51.055 36.92C50.4683 26.36 49.4283 16.4933 47.935 7.32C54.0683 6.84 59.4017 6.30666 63.935 5.72C68.4683 5.08 73.695 4.2 79.615 3.08C79.775 3.50666 79.9083 3.96 80.015 4.44C80.1217 4.86667 80.2017 5.29333 80.255 5.72C80.3083 6.09333 80.3083 6.49333 80.255 6.92C80.255 7.34666 80.2283 7.90666 80.175 8.6C73.8283 9.66666 68.9217 10.4133 65.455 10.84C61.9883 11.2667 58.6017 11.6133 55.295 11.88C55.7217 14.8133 56.095 17.9333 56.415 21.24C56.735 24.5467 56.975 28.0667 57.135 31.8C60.015 31.2133 62.9217 30.7333 65.855 30.36C68.8417 29.9867 71.9083 29.72 75.055 29.56C75.2683 30.52 75.4017 31.4 75.455 32.2C75.5617 32.9467 75.615 33.7467 75.615 34.6C72.895 34.76 70.015 35 66.975 35.32C63.935 35.5867 60.7083 35.96 57.295 36.44C57.295 36.6 57.295 36.76 57.295 36.92C57.295 37.08 57.3217 37.32 57.375 37.64C57.375 38.0133 57.375 38.28 57.375 38.44C57.375 38.6 57.375 38.76 57.375 38.92ZM127.204 64.52C126.67 65 125.844 65.5067 124.724 66.04C123.604 66.6267 122.564 67.0267 121.604 67.24C118.564 60.4133 115.924 55 113.684 51C111.497 47 109.07 43.1867 106.404 39.56C105.124 40.1467 103.684 40.7067 102.084 41.24C100.537 41.72 98.8571 42.2 97.0438 42.68C96.8838 46.9467 96.6971 50.9467 96.4838 54.68C96.2704 58.4133 96.0038 61.9867 95.6838 65.4C94.8838 65.5067 93.9504 65.5067 92.8838 65.4C91.8704 65.3467 91.0438 65.24 90.4038 65.08C90.6704 60.8667 90.8304 57.48 90.8838 54.92C90.9904 52.3067 91.0438 49.5867 91.0438 46.76C91.0438 38.1733 90.9104 31.3733 90.6438 26.36C90.3771 21.3467 89.8704 15.48 89.1237 8.76C91.4704 7.10666 94.1371 5.8 97.1238 4.84C100.164 3.88 103.15 3.4 106.084 3.4C111.364 3.4 115.524 4.78666 118.564 7.56C121.657 10.3333 123.204 14.04 123.204 18.68C123.204 22.6267 122.217 26.1467 120.244 29.24C118.27 32.28 115.284 34.9467 111.284 37.24C113.844 40.28 116.457 44.0933 119.124 48.68C121.79 53.2133 124.484 58.4933 127.204 64.52ZM96.0838 10.28C96.4571 15.0267 96.7238 19.1867 96.8838 22.76C97.0438 26.3333 97.1238 29.9067 97.1238 33.48C97.1238 34.28 97.1238 35.08 97.1238 35.88C97.1238 36.6267 97.1238 37.4 97.1238 38.2C103.79 36.5467 108.724 34.2267 111.924 31.24C115.124 28.2533 116.724 24.44 116.724 19.8C116.724 16.0133 115.737 13.1067 113.764 11.08C111.844 9 109.07 7.96 105.444 7.96C103.844 7.96 102.244 8.17333 100.644 8.6C99.0971 8.97333 97.5771 9.53333 96.0838 10.28ZM165.213 66.04C160.999 66.68 156.573 67.16 151.933 67.48C147.346 67.8533 142.333 68.12 136.893 68.28C135.346 58.04 134.066 47.64 133.053 37.08C132.093 26.4667 131.559 17.3467 131.453 9.72C138.866 8.44 144.813 7.56 149.293 7.08C153.773 6.6 158.466 6.30666 163.373 6.2C163.373 7.16 163.319 8.09333 163.213 9C163.159 9.85333 163.053 10.6533 162.893 11.4C158.519 11.4533 154.306 11.6667 150.253 12.04C146.253 12.36 142.306 12.84 138.413 13.48C138.306 16.68 138.306 19.9867 138.413 23.4C138.519 26.8133 138.706 30.4933 138.973 34.44C144.093 33.5333 148.039 32.8933 150.813 32.52C153.639 32.0933 156.439 31.7733 159.213 31.56C159.426 32.3067 159.559 33.08 159.613 33.88C159.719 34.68 159.746 35.56 159.693 36.52C155.639 36.84 152.119 37.1867 149.133 37.56C146.199 37.88 142.919 38.3333 139.293 38.92C139.666 43.2933 140.066 47.5333 140.493 51.64C140.973 55.7467 141.506 59.6667 142.093 63.4C146.519 63.2933 150.546 63.0267 154.173 62.6C157.853 62.1733 161.399 61.5867 164.813 60.84C165.026 61.5867 165.159 62.4667 165.213 63.48C165.319 64.4933 165.319 65.3467 165.213 66.04ZM206.463 66.04C202.249 66.68 197.823 67.16 193.183 67.48C188.596 67.8533 183.583 68.12 178.143 68.28C176.596 58.04 175.316 47.64 174.303 37.08C173.343 26.4667 172.809 17.3467 172.703 9.72C180.116 8.44 186.063 7.56 190.543 7.08C195.023 6.6 199.716 6.30666 204.623 6.2C204.623 7.16 204.569 8.09333 204.463 9C204.409 9.85333 204.303 10.6533 204.143 11.4C199.769 11.4533 195.556 11.6667 191.503 12.04C187.503 12.36 183.556 12.84 179.663 13.48C179.556 16.68 179.556 19.9867 179.663 23.4C179.769 26.8133 179.956 30.4933 180.223 34.44C185.343 33.5333 189.289 32.8933 192.063 32.52C194.889 32.0933 197.689 31.7733 200.463 31.56C200.676 32.3067 200.809 33.08 200.863 33.88C200.969 34.68 200.996 35.56 200.943 36.52C196.889 36.84 193.369 37.1867 190.383 37.56C187.449 37.88 184.169 38.3333 180.543 38.92C180.916 43.2933 181.316 47.5333 181.743 51.64C182.223 55.7467 182.756 59.6667 183.343 63.4C187.769 63.2933 191.796 63.0267 195.423 62.6C199.103 62.1733 202.649 61.5867 206.063 60.84C206.276 61.5867 206.409 62.4667 206.463 63.48C206.569 64.4933 206.569 65.3467 206.463 66.04Z" fill="#181818"/>
    </g>
    <!-- viewBox="0 0 122 41" -->
    <g id="arrow-d-left">
      <path fill-rule="evenodd" clip-rule="evenodd" d="M0.0668945 0.604736L14.9373 2.72908L14.7959 3.71903L2.59157 1.97556C19.828 13.9854 42.9479 22.7168 65.0491 28.7919C87.545 34.9756 108.943 38.3959 121.918 39.7267L121.816 40.7214C108.791 39.3856 87.3382 35.9558 64.7841 29.7562C42.6666 23.6765 19.4484 14.9221 2.08099 2.83858L6.32815 13.0318L5.40507 13.4164L0.0668945 0.604736Z"/>
    </g>
    <!-- viewBox="0 0 72 104" -->
    <g id="arrow-m-right">
      <path fill-rule="evenodd" clip-rule="evenodd" d="M62.4778 0.255127L71.8924 10.4237L71.1586 11.1031L63.6877 3.03389C73.0949 37.4131 63.9946 61.6904 49.2128 77.7504C34.1832 94.0797 13.3153 101.877 0.208474 103.222L0.106445 102.227C12.9996 100.905 33.6317 93.2022 48.4771 77.0732C63.0585 61.2309 72.0915 37.2235 62.6463 3.01824L59.164 13.939L58.2113 13.6352L62.4778 0.255127Z"/>
    </g>
    <!-- viewBox="0 0 72 104" -->
    <g id="arrow-m-left">
      <path fill-rule="evenodd" clip-rule="evenodd" d="M9.49471 0.255127L13.7612 13.6352L12.8084 13.939L9.3539 3.10523C-0.0519543 37.2641 8.97812 61.2442 23.5472 77.0731C38.3925 93.2021 59.0246 100.904 71.9178 102.227L71.8158 103.222C58.7089 101.877 37.841 94.0796 22.8114 77.7503C8.01824 61.678 -1.08461 37.3757 8.35824 2.95453L0.813866 11.1031L0.0800781 10.4237L9.49471 0.255127Z"/>
    </g>
    <!-- viewBox="0 0 122 41" -->
    <g id="arrow-d-right">
      <path fill-rule="evenodd" clip-rule="evenodd" d="M121.957 0.604736L116.619 13.4164L115.696 13.0318L119.943 2.83858C102.576 14.9221 79.3574 23.6765 57.24 29.7562C34.6859 35.9558 13.2334 39.3856 0.208474 40.7214L0.106445 39.7267C13.0815 38.3959 34.479 34.9756 56.9749 28.7919C79.0762 22.7168 102.196 13.9854 119.433 1.97556L107.228 3.71903L107.087 2.72908L121.957 0.604736Z"/>
    </g>
    <!-- viewBox="0 0 51 51" -->
    <g id="start-mobile-go">
      <path d="M0.230469 10.7209C0.230469 5.1981 4.70762 0.720947 10.2305 0.720947H40.2305C45.7533 0.720947 50.2305 5.1981 50.2305 10.7209V40.7209C50.2305 46.2438 45.7533 50.7209 40.2305 50.7209H10.2305C4.70762 50.7209 0.230469 46.2438 0.230469 40.7209V10.7209Z"/>
      <path d="M23.0749 25.5276C23.0482 26.821 23.1216 28.0676 23.2949 29.2676C23.4682 30.4543 23.7416 31.6676 24.1149 32.9076C23.9549 32.9476 23.7682 32.981 23.5549 33.0076C23.3416 33.0343 23.1216 33.0543 22.8949 33.0676C22.7082 32.601 22.5416 32.141 22.3949 31.6876C22.2482 31.221 22.1149 30.7476 21.9949 30.2676C21.5282 31.1743 20.9816 31.841 20.3549 32.2676C19.7416 32.6943 19.0216 32.9076 18.1949 32.9076C16.9949 32.9076 16.0416 32.3343 15.3349 31.1876C14.6282 30.041 14.2749 28.481 14.2749 26.5076C14.2749 23.9876 14.7549 21.941 15.7149 20.3676C16.6749 18.7943 17.9416 18.0076 19.5149 18.0076C20.5949 18.0076 21.4416 18.4276 22.0549 19.2676C22.6682 20.1076 22.9749 21.2476 22.9749 22.6876C22.7216 22.7543 22.4616 22.8076 22.1949 22.8476C21.9416 22.8876 21.6682 22.9143 21.3749 22.9276C21.3482 21.6876 21.1416 20.7543 20.7549 20.1276C20.3816 19.4876 19.8416 19.1676 19.1349 19.1676C18.2016 19.1676 17.4282 19.8143 16.8149 21.1076C16.2149 22.401 15.9149 24.041 15.9149 26.0276C15.9149 27.801 16.1416 29.181 16.5949 30.1676C17.0616 31.141 17.7082 31.6276 18.5349 31.6276C19.2416 31.6276 19.8549 31.3476 20.3749 30.7876C20.9082 30.2276 21.3216 29.4143 21.6149 28.3476C21.5616 27.961 21.5082 27.5543 21.4549 27.1276C21.4149 26.6876 21.3816 26.2143 21.3549 25.7076C21.5949 25.6543 21.8616 25.6143 22.1549 25.5876C22.4616 25.5476 22.7682 25.5276 23.0749 25.5276Z" fill="#ffffff"/>
      <path d="M31.2421 17.8276C32.7221 17.8276 33.8421 18.4076 34.6021 19.5676C35.3754 20.7143 35.7621 22.3943 35.7621 24.6076C35.7621 25.5676 35.6554 26.521 35.4421 27.4676C35.2421 28.401 34.9488 29.2343 34.5621 29.9676C34.0688 30.9276 33.4488 31.6543 32.7021 32.1476C31.9688 32.641 31.1354 32.8876 30.2021 32.8876C28.8288 32.8876 27.7154 32.221 26.8621 30.8876C26.0221 29.5543 25.6021 27.8276 25.6021 25.7076C25.6021 23.4143 26.1288 21.5276 27.1821 20.0476C28.2354 18.5676 29.5888 17.8276 31.2421 17.8276ZM30.3621 31.7076C31.5221 31.7076 32.4354 31.081 33.1021 29.8276C33.7821 28.561 34.1221 26.9343 34.1221 24.9476C34.1221 22.921 33.8688 21.4343 33.3621 20.4876C32.8554 19.5276 32.0621 19.0476 30.9821 19.0476C29.8888 19.0476 28.9954 19.6476 28.3021 20.8476C27.6088 22.0343 27.2621 23.5743 27.2621 25.4676C27.2621 27.281 27.5354 28.7743 28.0821 29.9476C28.6421 31.121 29.4021 31.7076 30.3621 31.7076Z" fill="#ffffff"/>
    </g>
    <!-- viewBox="0 0 116 68" -->
    <g id="logo-mobile">
      <path d="M21.6119 30.4175C21.2284 30.6254 20.833 30.7987 20.4256 30.9373C20.0182 31.0759 19.4909 31.1914 18.8438 31.2838C18.4843 28.9044 18.1248 26.8138 17.7654 25.0119C17.4059 23.21 17.0344 21.5583 16.6509 20.0568C14.9494 20.0337 13.2837 20.0799 11.654 20.1954C10.0243 20.2878 8.5025 20.4379 7.0885 20.6458C6.58522 21.8471 6.02201 23.083 5.3989 24.3535C4.79975 25.6241 4.1287 26.9639 3.38575 28.3731C2.9304 28.2807 2.49901 28.1305 2.09159 27.9226C1.68417 27.7378 1.28873 27.4721 0.905273 27.1256C3.03825 23.4988 4.77578 19.9528 6.11788 16.4877C7.48394 12.9994 8.80207 8.57562 10.0723 3.21622C10.7194 3.23932 11.2586 3.27397 11.69 3.32017C12.1214 3.36637 12.5408 3.43568 12.9482 3.52808C15.2969 7.91725 17.1063 12.1101 18.3765 16.1065C19.6707 20.103 20.7491 24.8733 21.6119 30.4175ZM11.5821 6.47345C11.0069 8.89904 10.4198 11.0936 9.82063 13.0572C9.24544 14.9977 8.61034 16.8457 7.91533 18.6014C9.0657 18.4397 10.3239 18.3126 11.69 18.2202C13.056 18.1047 14.5299 18.0239 16.1117 17.9777C15.5126 15.9448 14.8535 14.0043 14.1345 12.1563C13.4155 10.3082 12.5647 8.41392 11.5821 6.47345Z" fill="#181818"/>
      <path d="M40.0507 1.76086C39.4275 7.23577 38.5048 12.0639 37.2826 16.2451C36.0603 20.4033 34.1191 25.2083 31.4588 30.6601C31.1233 30.7525 30.7758 30.8218 30.4163 30.868C30.0568 30.9142 29.6494 30.9373 29.1941 30.9373C27.4685 27.0794 26.0186 23.1292 24.8442 19.0865C23.6699 15.0208 22.7592 10.8049 22.1121 6.43879C22.5914 6.23088 23.0588 6.06918 23.5141 5.95367C23.9695 5.81507 24.4608 5.72266 24.988 5.67646C25.4673 9.51121 26.1743 13.2767 27.109 16.9728C28.0676 20.6689 29.254 24.2496 30.668 27.7147C32.6332 23.1407 34.1191 18.8786 35.1256 14.9284C36.1322 10.955 36.8752 6.40414 37.3545 1.27574C37.8338 1.27574 38.2772 1.32194 38.6846 1.41435C39.116 1.48365 39.5713 1.59916 40.0507 1.76086Z" fill="#181818"/>
      <path d="M59.3162 30.4175C58.9328 30.6254 58.5373 30.7987 58.1299 30.9373C57.7225 31.0759 57.1952 31.1914 56.5482 31.2838C56.1887 28.9044 55.8292 26.8138 55.4697 25.0119C55.1102 23.21 54.7387 21.5583 54.3553 20.0568C52.6537 20.0337 50.988 20.0799 49.3584 20.1954C47.7287 20.2878 46.2068 20.4379 44.7928 20.6458C44.2895 21.8471 43.7263 23.083 43.1032 24.3535C42.5041 25.6241 41.833 26.9639 41.0901 28.3731C40.6347 28.2807 40.2033 28.1305 39.7959 27.9226C39.3885 27.7378 38.9931 27.4721 38.6096 27.1256C40.7426 23.4988 42.4801 19.9528 43.8222 16.4877C45.1883 12.9994 46.5064 8.57562 47.7766 3.21622C48.4237 3.23932 48.9629 3.27397 49.3943 3.32017C49.8257 3.36637 50.2451 3.43568 50.6525 3.52808C53.0012 7.91725 54.8106 12.1101 56.0808 16.1065C57.375 20.103 58.4535 24.8733 59.3162 30.4175ZM49.2865 6.47345C48.7113 8.89904 48.1241 11.0936 47.525 13.0572C46.9498 14.9977 46.3147 16.8457 45.6197 18.6014C46.77 18.4397 48.0282 18.3126 49.3943 18.2202C50.7604 18.1047 52.2343 18.0239 53.816 17.9777C53.2169 15.9448 52.5578 14.0043 51.8388 12.1563C51.1199 10.3082 50.2691 8.41392 49.2865 6.47345Z" fill="#181818"/>
      <path d="M68.7391 26.4673C68.4275 26.5597 68.0321 26.6405 67.5528 26.7098C67.0734 26.756 66.5821 26.7907 66.0789 26.8138C66.1987 23.0945 66.1507 19.1212 65.9351 14.8937C65.7194 10.6663 65.3479 6.7622 64.8206 3.18157C63.5984 3.29707 62.3282 3.44723 61.01 3.63203C59.7159 3.79374 58.3139 3.97855 56.804 4.18645C56.7081 3.79374 56.6362 3.40102 56.5883 3.00831C56.5404 2.61559 56.5284 2.25753 56.5524 1.93412C60.1473 1.3566 63.3347 0.940781 66.1148 0.68667C68.9188 0.432561 72.1063 0.282407 75.6772 0.236206C75.7491 0.397912 75.7971 0.582719 75.821 0.790627C75.869 0.998535 75.9049 1.22954 75.9289 1.48365C75.9289 1.57606 75.9289 1.68001 75.9289 1.79551C75.9289 1.91102 75.9049 2.18823 75.857 2.62715C74.419 2.65025 73.0649 2.6849 71.7947 2.7311C70.5245 2.7773 69.2663 2.8466 68.0201 2.93901C68.3317 5.94212 68.5593 8.77198 68.7031 11.4286C68.8469 14.0621 68.9188 16.8111 68.9188 19.6756C68.9188 20.6689 68.9068 21.72 68.8829 22.8289C68.8589 23.9377 68.811 25.1505 68.7391 26.4673Z" fill="#181818"/>
      <path d="M94.9142 30.4175C94.5307 30.6254 94.1353 30.7987 93.7278 30.9373C93.3204 31.0759 92.7932 31.1914 92.1461 31.2838C91.7866 28.9044 91.4271 26.8138 91.0676 25.0119C90.7081 23.21 90.3367 21.5583 89.9532 20.0568C88.2516 20.0337 86.586 20.0799 84.9563 20.1954C83.3266 20.2878 81.8048 20.4379 80.3908 20.6458C79.8875 21.8471 79.3243 23.083 78.7012 24.3535C78.102 25.6241 77.431 26.9639 76.688 28.3731C76.2327 28.2807 75.8013 28.1305 75.3939 27.9226C74.9864 27.7378 74.591 27.4721 74.2075 27.1256C76.3405 23.4988 78.078 19.9528 79.4201 16.4877C80.7862 12.9994 82.1043 8.57562 83.3745 3.21622C84.0216 3.23932 84.5609 3.27397 84.9922 3.32017C85.4236 3.36637 85.843 3.43568 86.2505 3.52808C88.5991 7.91725 90.4086 12.1101 91.6787 16.1065C92.9729 20.103 94.0514 24.8733 94.9142 30.4175ZM84.8844 6.47345C84.3092 8.89904 83.722 11.0936 83.1229 13.0572C82.5477 14.9977 81.9126 16.8457 81.2176 18.6014C82.368 18.4397 83.6262 18.3126 84.9922 18.2202C86.3583 18.1047 87.8322 18.0239 89.414 17.9777C88.8148 15.9448 88.1558 14.0043 87.4368 12.1563C86.7178 10.3082 85.867 8.41392 84.8844 6.47345Z" fill="#181818"/>
      <path d="M115.126 27.4375C114.886 27.6454 114.515 27.8649 114.012 28.0959C113.508 28.35 113.041 28.5232 112.61 28.6156C111.243 25.6587 110.057 23.314 109.051 21.5814C108.068 19.8489 106.977 18.1971 105.779 16.6263C105.204 16.8804 104.557 17.123 103.838 17.354C103.143 17.5619 102.388 17.7698 101.573 17.9777C101.501 19.8258 101.417 21.5583 101.322 23.1754C101.226 24.7924 101.106 26.3402 100.962 27.8187C100.603 27.8649 100.183 27.8649 99.7038 27.8187C99.2484 27.7956 98.877 27.7494 98.5894 27.6801C98.7092 25.8551 98.7811 24.3882 98.8051 23.2793C98.853 22.1474 98.877 20.9692 98.877 19.7449C98.877 16.0257 98.8171 13.0803 98.6972 10.9088C98.5774 8.73733 98.3497 6.19623 98.0142 3.28552C99.0687 2.5694 100.267 2.00342 101.609 1.58761C102.975 1.17179 104.317 0.963881 105.635 0.963881C108.008 0.963881 109.877 1.56451 111.243 2.76575C112.633 3.967 113.328 5.57251 113.328 7.58228C113.328 9.29175 112.885 10.8164 111.998 12.1563C111.112 13.473 109.77 14.6281 107.972 15.6214C109.122 16.9381 110.297 18.5899 111.495 20.5765C112.693 22.5401 113.904 24.8271 115.126 27.4375ZM101.142 3.9439C101.31 5.99988 101.429 7.80174 101.501 9.3495C101.573 10.8973 101.609 12.445 101.609 13.9928C101.609 14.3393 101.609 14.6858 101.609 15.0323C101.609 15.3557 101.609 15.6907 101.609 16.0372C104.605 15.3211 106.822 14.3162 108.26 13.0225C109.698 11.7289 110.417 10.0772 110.417 8.06741C110.417 6.42724 109.973 5.16824 109.086 4.29041C108.224 3.38948 106.977 2.93901 105.348 2.93901C104.629 2.93901 103.91 3.03141 103.191 3.21622C102.496 3.37793 101.813 3.62048 101.142 3.9439Z" fill="#181818"/>
      <path d="M28.163 65.5193C27.7317 65.681 27.2883 65.7965 26.8329 65.8658C26.3776 65.9351 25.8743 65.9698 25.3231 65.9698C25.5627 62.2274 25.7185 58.4966 25.7904 54.7774C25.8863 51.0581 25.9102 46.8307 25.8623 42.095C24.3764 44.4513 23.0583 46.9 21.9079 49.4411C20.7575 51.9822 19.6911 54.7774 18.7085 57.8267C18.4448 57.9191 18.1453 57.9884 17.8097 58.0346C17.4742 58.0577 17.1387 58.0462 16.8032 58C15.8445 55.02 14.778 52.2825 13.6037 49.7876C12.4533 47.2927 11.1112 44.8671 9.57741 42.5108C9.55344 42.9728 9.52948 43.4464 9.50551 43.9315C9.50551 44.4166 9.50551 45.2598 9.50551 46.4611C9.50551 49.0484 9.64931 51.8205 9.9369 54.7774C10.2245 57.7112 10.6559 60.7374 11.2311 63.856C10.8716 63.9484 10.4402 64.0177 9.9369 64.0639C9.45758 64.1332 9.01421 64.1679 8.60679 64.1679C7.98367 60.518 7.52832 56.3945 7.24072 51.7974C6.9771 47.2003 6.91718 42.9035 7.06098 38.9071C7.58823 38.6299 8.07953 38.4104 8.53489 38.2487C9.01421 38.0639 9.45758 37.9368 9.865 37.8675C11.5666 40.2238 13.1004 42.788 14.4665 45.5601C15.8565 48.3091 16.9949 51.0928 17.8816 53.9111C18.7444 51.3007 19.7989 48.6903 21.0451 46.0799C22.3153 43.4695 23.8372 40.7321 25.6107 37.8675C26.114 37.9368 26.5813 38.0408 27.0127 38.1794C27.4441 38.318 27.8395 38.4682 28.199 38.6299C28.3668 41.8178 28.4387 45.7103 28.4147 50.3074C28.4147 54.8813 28.3308 59.952 28.163 65.5193Z" fill="#181818"/>
      <path d="M52.3652 66.8014C51.9817 67.0093 51.5863 67.1826 51.1788 67.3212C50.7714 67.4598 50.2442 67.5753 49.5971 67.6677C49.2376 65.2883 48.8781 63.1977 48.5186 61.3958C48.1591 59.5939 47.7876 57.9422 47.4042 56.4407C45.7026 56.4176 44.037 56.4638 42.4073 56.5793C40.7776 56.6717 39.2557 56.8218 37.8418 57.0297C37.3385 58.231 36.7753 59.4669 36.1522 60.7374C35.553 62.008 34.882 63.3478 34.139 64.757C33.6837 64.6646 33.2523 64.5144 32.8448 64.3065C32.4374 64.1217 32.042 63.856 31.6585 63.5095C33.7915 59.8827 35.529 56.3367 36.8711 52.8716C38.2372 49.3833 39.5553 44.9595 40.8255 39.6001C41.4726 39.6232 42.0118 39.6579 42.4432 39.7041C42.8746 39.7503 43.294 39.8196 43.7014 39.912C46.0501 44.3011 47.8595 48.4939 49.1297 52.4904C50.4239 56.4869 51.5024 61.2572 52.3652 66.8014ZM42.3354 42.8573C41.7602 45.2829 41.173 47.4775 40.5739 49.4411C39.9987 51.3816 39.3636 53.2296 38.6686 54.9853C39.8189 54.8236 41.0772 54.6965 42.4432 54.6041C43.8093 54.4886 45.2832 54.4078 46.865 54.3616C46.2658 52.3287 45.6067 50.3882 44.8878 48.5401C44.1688 46.6921 43.318 44.7978 42.3354 42.8573Z" fill="#181818"/>
      <path d="M72.9724 65.1035C72.6608 65.5424 72.3253 65.9005 71.9658 66.1777C71.6063 66.478 71.1989 66.7321 70.7435 66.94C69.0659 64.1448 67.5081 61.8578 66.0701 60.079C64.6322 58.2772 62.8587 56.3945 60.7497 54.4309C59.9828 55.0315 59.4555 55.4473 59.1679 55.6783C58.8803 55.8862 58.6047 56.0826 58.3411 56.2674C58.389 58 58.4729 59.617 58.5928 61.1186C58.7365 62.6201 58.9283 64.3065 59.1679 66.1777C58.8084 66.247 58.389 66.3047 57.9097 66.3509C57.4304 66.4202 57.023 66.4549 56.6875 66.4549C56.2321 63.1977 55.9086 60.2754 55.7168 57.6881C55.5491 55.0777 55.4652 52.1092 55.4652 48.7827C55.4652 47.466 55.4892 46.0799 55.5371 44.6246C55.609 43.1461 55.7049 41.5868 55.8247 39.9466C56.304 39.8311 56.6755 39.7503 56.9391 39.7041C57.2267 39.6579 57.4903 39.6348 57.73 39.6348C57.9696 39.6348 58.2093 39.6579 58.449 39.7041C58.6886 39.7272 58.9403 39.7734 59.2039 39.8427C58.8923 41.76 58.6646 43.7121 58.5209 45.6987C58.3771 47.6623 58.3052 49.9493 58.3052 52.5597C58.3052 52.8138 58.3052 53.0795 58.3052 53.3567C58.3052 53.6108 58.3052 53.8649 58.3052 54.119C60.7018 52.063 62.5951 50.1226 63.9851 48.2976C65.3991 46.4495 66.9569 43.7814 68.6585 40.2931C69.0419 40.4548 69.4134 40.6743 69.7729 40.9515C70.1563 41.2287 70.5278 41.5752 70.8873 41.991C69.4973 44.4628 68.1672 46.5304 66.897 48.1936C65.6268 49.8338 64.1768 51.4047 62.5471 52.9062C64.6322 54.7081 66.3697 56.4291 67.7597 58.0693C69.1498 59.7094 70.8873 62.0542 72.9724 65.1035Z" fill="#181818"/>
      <path d="M90.0779 64.4798C88.1846 64.757 86.1954 64.9649 84.1104 65.1035C82.0493 65.2652 79.7965 65.3807 77.352 65.45C76.6569 61.0146 76.0818 56.51 75.6264 51.936C75.195 47.3389 74.9554 43.3887 74.9074 40.0852C78.2387 39.5308 80.9109 39.1496 82.924 38.9417C84.9372 38.7338 87.0462 38.6068 89.2511 38.5606C89.2511 38.9764 89.2271 39.3807 89.1792 39.7734C89.1552 40.143 89.1073 40.4895 89.0354 40.8129C87.0702 40.836 85.1769 40.9284 83.3554 41.0901C81.558 41.2287 79.7845 41.4366 78.035 41.7138C77.9871 43.0999 77.9871 44.5321 78.035 46.0106C78.0829 47.4891 78.1668 49.083 78.2866 50.7925C80.5874 50.3998 82.3608 50.1226 83.6071 49.9609C84.8773 49.7761 86.1355 49.6374 87.3817 49.545C87.4776 49.8685 87.5375 50.2034 87.5615 50.5499C87.6094 50.8964 87.6214 51.2776 87.5974 51.6934C85.776 51.832 84.1942 51.9822 82.8522 52.1439C81.534 52.2825 80.0601 52.4789 78.4304 52.733C78.5982 54.6272 78.7779 56.4638 78.9697 58.2425C79.1853 60.0213 79.425 61.7192 79.6886 63.3363C81.6778 63.2901 83.4872 63.1746 85.1169 62.9898C86.7706 62.805 88.3643 62.5508 89.8982 62.2274C89.994 62.5508 90.0539 62.932 90.0779 63.3709C90.1258 63.8098 90.1258 64.1794 90.0779 64.4798Z" fill="#181818"/>
      <path d="M110.983 63.8214C110.744 64.0293 110.372 64.2487 109.869 64.4798C109.366 64.7339 108.898 64.9071 108.467 64.9995C107.101 62.0426 105.915 59.6979 104.908 57.9653C103.925 56.2327 102.835 54.581 101.637 53.0102C101.061 53.2643 100.414 53.5068 99.6954 53.7379C99.0004 53.9458 98.2454 54.1537 97.4306 54.3616C97.3587 56.2096 97.2748 57.9422 97.1789 59.5593C97.0831 61.1763 96.9633 62.7241 96.8195 64.2025C96.46 64.2488 96.0406 64.2488 95.5612 64.2025C95.1059 64.1794 94.7344 64.1332 94.4468 64.0639C94.5667 62.239 94.6386 60.7721 94.6625 59.6632C94.7104 58.5313 94.7344 57.3531 94.7344 56.1288C94.7344 52.4095 94.6745 49.4642 94.5547 47.2927C94.4348 45.1212 94.2072 42.5801 93.8716 39.6694C94.9261 38.9533 96.1244 38.3873 97.4665 37.9715C98.8326 37.5557 100.175 37.3478 101.493 37.3478C103.865 37.3478 105.735 37.9484 107.101 39.1496C108.491 40.3509 109.186 41.9564 109.186 43.9662C109.186 45.6756 108.743 47.2003 107.856 48.5401C106.969 49.8569 105.627 51.0119 103.83 52.0053C104.98 53.322 106.154 54.9737 107.353 56.9604C108.551 58.924 109.761 61.211 110.983 63.8214ZM96.9992 40.3278C97.167 42.3838 97.2868 44.1856 97.3587 45.7334C97.4306 47.2812 97.4665 48.8289 97.4665 50.3767C97.4665 50.7232 97.4665 51.0697 97.4665 51.4162C97.4665 51.7396 97.4665 52.0746 97.4665 52.4211C100.462 51.705 102.679 50.7001 104.117 49.4064C105.555 48.1128 106.274 46.4611 106.274 44.4513C106.274 42.8111 105.831 41.5521 104.944 40.6743C104.081 39.7734 102.835 39.3229 101.205 39.3229C100.486 39.3229 99.7673 39.4153 99.0483 39.6001C98.3533 39.7618 97.6703 40.0044 96.9992 40.3278Z" fill="#181818"/>
    </g>
  </defs>
</svg>